<?xml version="1.0" encoding="utf-8"?>
<!-- Generator: Adobe Illustrator 23.0.0, SVG Export Plug-In . SVG Version: 6.00 Build 0)  -->
<svg version="1.1" id="Layer_1" xmlns="http://www.w3.org/2000/svg" xmlns:xlink="http://www.w3.org/1999/xlink" x="0px" y="0px"
	 viewBox="0 0 1920 1080" style="enable-background:new 0 0 1920 1080;" xml:space="preserve">
<style type="text/css">
	.st0{fill:#FFE269;stroke:#000000;stroke-miterlimit:10;}
	.st1{fill:#FAF7FD;}
	.st2{fill:url(#SVGID_1_);}
	.st3{fill:none;stroke:#2D24A2;stroke-width:0.5;stroke-miterlimit:10;}
	.st4{fill:#FFACAC;}
	.st5{opacity:0.2;enable-background:new    ;}
	.st6{fill:#2D24A2;}
	.st7{opacity:0.2;}
	.st8{fill:#392ECE;}
	.st9{fill:#402C2C;}
	.st10{fill:#EC7E7E;}
	.st11{fill:url(#SVGID_2_);}
	.st12{fill:url(#SVGID_3_);}
	.st13{fill:url(#SVGID_4_);}
	.st14{fill:url(#SVGID_5_);}
	.st15{fill:url(#SVGID_6_);}
	.st16{fill:#FFFFFF;}
	.st17{fill:none;stroke:#EC7E7E;stroke-miterlimit:10;}
	.st18{fill:#212226;}
	.st19{fill:#D89292;}
	.st20{fill:#999EB2;}
	.st21{fill:#FFE6DA;}
	.st22{fill:#31ADDF;}
	.st23{fill:url(#SVGID_7_);}
	.st24{fill:url(#SVGID_8_);}
	.st25{fill:#A57070;}
	.st26{fill:url(#SVGID_9_);}
	.st27{fill:none;stroke:#999EB2;stroke-miterlimit:10;}
	.st28{fill:url(#SVGID_10_);}
	.st29{fill:url(#SVGID_11_);}
	.st30{fill:url(#SVGID_12_);}
	.st31{fill:url(#SVGID_13_);}
	.st32{fill:url(#SVGID_14_);}
	.st33{fill:#1067E5;}
	.st34{fill:url(#SVGID_15_);}
	.st35{fill:#434040;}
	.st36{opacity:0.8;}
	.st37{fill:url(#SVGID_16_);}
	.st38{opacity:0.5;}
	.st39{fill:#89867D;}
	.st40{opacity:0.5;fill:#89867D;enable-background:new    ;}
	.st41{fill:#5E35B1;}
	.st42{fill:#2D24A3;}
	.st43{fill:#2196F3;}
	.st44{fill:#2196F3;stroke:#000000;stroke-width:2;stroke-linecap:round;stroke-linejoin:round;stroke-miterlimit:10;}
</style>
<rect x="-0.5" y="-3.5" class="st0" width="1920" height="1080"/>
<g>
	<path class="st1" d="M1921,363.7c-35.7,52.4-70.7,109-104.7,170.3C1464,1167.6,1198.9,775.1,619.7,986
		c-66.8,24.3-118.9,56.3-159.3,94H1921V363.7z"/>
	
		<linearGradient id="SVGID_1_" gradientUnits="userSpaceOnUse" x1="2346.3896" y1="684.6457" x2="-1772.3362" y2="-1310.5493" gradientTransform="matrix(1 0 0 -1 0 1080)">
		<stop  offset="0" style="stop-color:#FFBF16"/>
		<stop  offset="1" style="stop-color:#FF4800"/>
	</linearGradient>
	<path class="st2" d="M1921,138c-47,68.9-93,143.4-137.7,223.9c-463.4,833.3-812,317.1-1573.7,594.4c-87.9,32-156.4,74-209.6,123.7
		h1921L1921,138L1921,138z"/>
</g>
<g>
	<line class="st3" x1="1089.6" y1="887" x2="1410.6" y2="887"/>
	<g>
		<line class="st3" x1="1533" y1="915.7" x2="1854" y2="915.7"/>
		<g>
			<line class="st3" x1="1282.1" y1="898" x2="1603.1" y2="898"/>
			<g>
				<path class="st4" d="M1656.2,756.3l29.2,19.5l-14.5,45.4c0,0-10.6,4.7-12.5,8.4c-1.9,3.6-5.4,8.4-3.4,8.2
					c1.9-0.2,7.5-4.9,8.6-4.9s-1.7,12.9-1.7,12.9s9.7-1.3,13.3-6.9c3.6-5.6,5.8-15.5,5.8-15.5s17.3-32.4,21.6-55
					c0,0-32.6-28.1-43.2-32.2C1648.9,732.1,1642.5,748.7,1656.2,756.3z"/>
				<path class="st5" d="M1670.9,766.1l14.5,9.7l-14.5,45.4c0,0-10.6,4.7-12.5,8.4c-1.9,3.6-5.4,8.4-3.4,8.2
					c1.9-0.2,7.5-4.9,8.6-4.9s-1.7,12.9-1.7,12.9s9.7-1.3,13.3-6.9c3.6-5.6,5.8-15.5,5.8-15.5s14.1-26.3,20-48L1670.9,766.1z"/>
				<path class="st6" d="M1628.6,812.5l-3.6,5.7c0,0-79.6-4.1-90.3,9.7c-10.6,13.8,13.8,38.3,42.8,57s19,12.9,19,12.9
					s-27.7,3.9-27.4,8.1c0.3,4.2,52.8,0,52.8,0l-47-53.8l66,3.2l14.2-39.6L1628.6,812.5z"/>
				<g class="st7">
					<path d="M1596.7,897.8c0,0-27.7,3.9-27.4,8.1c0.3,4.2,52.8,0,52.8,0l-45-51.5c-8.5,5.4-16.4,10.5-21.8,14.1
						c6.7,5.7,14.4,11.3,22.4,16.5C1606.6,903.6,1596.7,897.8,1596.7,897.8z"/>
					<path d="M1625.1,823.9c0,0-23.6,14.9-44.8,28.4l60.8,3l14.2-39.6l-25.4-3.1L1625.1,823.9z"/>
				</g>
				<path class="st8" d="M1630.9,809.9l-2.3,15.5c0,0-36.8,23.5-51.3,43.8s-26.5,42.3-20.8,50.9c9.8,14.8,103.2-24.8,103.2-24.8
					l-2.9,15.5c0,0-13.8,8.7-12.2,10.9c1.6,2.3,28.9-6.1,28.9-6.1s8.4-35.1,5.5-42.5s-21.1,9.3-21.1,9.3l-46.9,5.8
					c0,0,35.5-16.8,54.8-31.6c14.3-10.9,17.5-29.9,8.6-46.7L1630.9,809.9L1630.9,809.9z"/>
				<path class="st4" d="M1657.9,882.4l-34.4,4.3c1.4,2.9,3.7,10.3,0.2,22.5c19.7-7,36-13.9,36-13.9l-2.9,15.5
					c0,0-13.8,8.7-12.2,10.9c1.6,2.3,28.9-6.1,28.9-6.1s8.4-35.1,5.5-42.5C1676.2,865.6,1657.9,882.4,1657.9,882.4z"/>
				<path class="st9" d="M1662.8,878.3l4.6,15.5l-8.4,6.1l-2,10.8c0,0-13.8,8.7-12.2,10.9c1.6,2.3,28.9-6.1,28.9-6.1
					s8.4-35.1,5.5-42.5C1677.2,868.1,1668.4,873.9,1662.8,878.3z"/>
				<path class="st10" d="M1590.1,690.1c0,0-16.7,22.1,15,28.7c31.7,6.6,26.3-11.2,24.2-15.6C1627.1,698.9,1601,685.9,1590.1,690.1z
					"/>
				<path class="st4" d="M1593.3,698.5c0,0,3.1,13.6,0,18.6h4.8c0,0,2.8,5.3,4.7,9c1.9,3.6,8.1-1.6,10.5,0s7,14.7,7,14.7l23.7-7.1
					l-19.8-41L1593.3,698.5z"/>
				
					<linearGradient id="SVGID_2_" gradientUnits="userSpaceOnUse" x1="1641.8433" y1="311.4949" x2="1653.9943" y2="226.4371" gradientTransform="matrix(1 0 0 -1 0 1080)">
					<stop  offset="0" style="stop-color:#FFE6DA"/>
					<stop  offset="0.5771" style="stop-color:#C19591"/>
					<stop  offset="0.875" style="stop-color:#A57070"/>
				</linearGradient>
				<path class="st11" d="M1613.7,731.5c0,0,8.4,1.4,20.4-5.9l4.3,4.3l15.2,1.6c0,0,13.7,17,16.1,37.9c2.4,20.8,4.7,32.8,9.2,37.4
					c4.5,4.5,0.4,9.7-3.6,10.5c-4.1,0.9-39.5,1.9-46.7,1.9s-4.6-6.9-1.6-9.7s3.4-17.2-2.1-22.5c-5.6-5.4-13.1-9.2-15.7-17.6
					c-3.8-12.1,6.4-31.1,6.4-31.1L1613.7,731.5z"/>
				<path class="st4" d="M1573.2,785.8c0,0,22-22.5,27.8-30.2s15.9-14.9,22.4-7c5.6,6.9-4.2,17.3-6.3,20.5
					c-1.6,2.5-24.9,23.5-35.7,33.3c-3.3,2.9-8,3.5-11.9,1.4l-42.7-23.6c0,0-4,2.1-9.3,1.4c-5.3-0.6-4.5-0.6-6.8-2.6
					c-2.3-2.1-9.7-7.2-9.7-10.2c0,0,16.4,2.4,18.8,0.1c2.4-2.3-2.7-9.2-0.2-11.4l9,11.3L1573.2,785.8z"/>
				<path class="st5" d="M1606.1,707.3c1.3,12.8,15.5,12.9,20.1,20.5s1.5,13.2,10.1,16.2c8.4,2.9,22.2,17.9,29.1,8.5
					c-4.9-12.4-11.7-20.9-11.7-20.9l-11.3-1.2l-13.1-27.2l0,0l0,0l-5.1-10.6l-9.1,1.7c-8.6-3.7-19-6.5-25-4.2c0,0-1.6,2.1-2.8,5.1
					C1588.2,708.2,1606.1,707.3,1606.1,707.3z"/>
				<path class="st10" d="M1586.5,689.8c0.9-12.5,21.5-16.1,33.5-11.4c12,4.7,13.5,15.2,24,20c10.5,4.7,10.7,14.2,16.3,19.8
					s14.6,15.2,8.6,26.4s-21.3-3.4-30.1-5.8c-8.8-2.4-6-8.2-11.2-15.5s-19.3-6.4-21.5-19.1C1606.2,704.2,1585.2,706.8,1586.5,689.8z
					"/>
				<polygon class="st5" points="1611.1,888.2 1593.8,900.2 1623.6,886.6 				"/>
			</g>
			<g>
				<g>
					
						<linearGradient id="SVGID_3_" gradientUnits="userSpaceOnUse" x1="1317.4373" y1="142.549" x2="1312.2603" y2="21.9218" gradientTransform="matrix(0.9923 0.1239 0.1239 -0.9923 52.9999 756.0176)">
						<stop  offset="0" style="stop-color:#402C2C"/>
						<stop  offset="0.2802" style="stop-color:#5A3E3E"/>
						<stop  offset="0.753" style="stop-color:#815858"/>
						<stop  offset="1" style="stop-color:#906262"/>
					</linearGradient>
					<path class="st12" d="M1367.1,770.1l-10.8,134.8c-0.3,3.2,2.1,6.1,5.3,6.5c3.2,0.4,6.2-1.8,6.7-5l22.6-133.3L1367.1,770.1z"/>
					
						<linearGradient id="SVGID_4_" gradientUnits="userSpaceOnUse" x1="3603.3979" y1="427.9852" x2="3598.2209" y2="307.3579" gradientTransform="matrix(-0.9923 0.1239 -0.1239 -0.9923 5212.123 756.0176)">
						<stop  offset="0" style="stop-color:#402C2C"/>
						<stop  offset="0.2802" style="stop-color:#5A3E3E"/>
						<stop  offset="0.753" style="stop-color:#815858"/>
						<stop  offset="1" style="stop-color:#906262"/>
					</linearGradient>
					<path class="st13" d="M1594.3,770.1l10.8,134.8c0.3,3.2-2.1,6.1-5.3,6.5c-3.2,0.4-6.2-1.8-6.7-5l-22.6-133.3L1594.3,770.1z"/>
				</g>
				<g>
					
						<linearGradient id="SVGID_5_" gradientUnits="userSpaceOnUse" x1="1261.3997" y1="149.0586" x2="1256.2227" y2="28.4314" gradientTransform="matrix(0.9923 0.1239 0.1239 -0.9923 52.9999 756.0176)">
						<stop  offset="0" style="stop-color:#402C2C"/>
						<stop  offset="0.2802" style="stop-color:#5A3E3E"/>
						<stop  offset="0.753" style="stop-color:#815858"/>
						<stop  offset="1" style="stop-color:#906262"/>
					</linearGradient>
					<path class="st14" d="M1312.3,756.7l-10.8,134.8c-0.3,3.2,2.1,6.1,5.3,6.5c3.2,0.4,6.2-1.8,6.7-5l22.6-133.3L1312.3,756.7z"/>
					
						<linearGradient id="SVGID_6_" gradientUnits="userSpaceOnUse" x1="3656.115" y1="448.0642" x2="3650.9377" y2="327.437" gradientTransform="matrix(-0.9923 0.1239 -0.1239 -0.9923 5212.123 756.0176)">
						<stop  offset="0" style="stop-color:#402C2C"/>
						<stop  offset="0.2802" style="stop-color:#5A3E3E"/>
						<stop  offset="0.753" style="stop-color:#815858"/>
						<stop  offset="1" style="stop-color:#906262"/>
					</linearGradient>
					<path class="st15" d="M1539.5,756.7l10.8,134.8c0.3,3.2-2.1,6.1-5.3,6.5c-3.2,0.4-6.2-1.8-6.7-5l-22.6-133.3L1539.5,756.7z"/>
				</g>
				<g>
					<path id="Bulb" class="st16" d="M1524.1,238.2c0-30.4-26.3-54.7-57.4-51.2c-23.8,2.6-42.9,21.9-45.4,45.7
						c-1.5,14.5,3,28,11.4,38.2c5.8,7,9,15.8,9.8,24.8l0.9,11.2h58.2l0.9-11.2c0.8-9,3.9-17.8,9.7-24.7
						C1519.7,262.1,1524.1,250.7,1524.1,238.2z					">
<animate  accumulate="none" additive="replace" attributeName="fill" attributeType="XML" calcMode="linear" dur="0.5s" fill="remove" repeatCount="indefinite" restart="always" values="#ffffff;#ffffff;#ffff00;#ffff00">
							</animate>
					</path>
					<path class="st17" d="M1485,252.6c-1.1,0-2.1,2-2.9,2.9c-0.7,0.8-1.8,0.8-2.4,0c-0.8-0.9-1.8-2.9-2.9-2.9s-2.1,2-2.9,2.9
						c-0.7,0.8-1.8,0.8-2.4,0c-0.8-0.9-1.8-2.9-2.9-2.9s-2.1,2-2.9,2.9c-0.7,0.8-1.8,0.8-2.4,0c-0.8-0.9-1.8-2.9-2.9-2.9
						c-2.5,0-4.5,4.2-4.5,7.5l6.3,46.8h21.2l6.3-46.8C1489.4,256.8,1487.4,252.6,1485,252.6z"/>
					<polygon class="st5" points="1442.7,297.2 1443.5,306.9 1501.7,306.9 1502.5,297.2 					"/>
					<path class="st18" d="M1615.6,511.5c0,0-24.5,5.4-27,10.9h39.2l-5-10.9L1615.6,511.5L1615.6,511.5z"/>
					<path class="st18" d="M1641,565.6l-9.5,21.8c0,0-5.6,0.5-7.4,5.9l20.6-2l11.5-17.9l-4.7-7.8H1641z"/>
					<path class="st6" d="M1598.8,376.3c0,0-41.9,63.2-38.1,77.7c3.9,14.5,52,59.3,52,59.3h12.8c0,0-23.4-59-38.2-62.9l42.6-52.5
						l-5.6-21.5h-25.5V376.3z"/>
					<path class="st5" d="M1618.5,392.5l-54.9,67.4c11.2,18.1,49.2,53.4,49.2,53.4h12.8c0,0-23.4-59-38.2-62.9l36.9-45.5
						L1618.5,392.5z"/>
					<path class="st6" d="M1605.8,380.6l8.5,22.9l6.3,73l19.2,91.4h14.5c0,0,0.8-76.8-10.1-98.2l7.9-96.1L1605.8,380.6z"/>
					<path class="st5" d="M1624.4,376.3h-25.6c0,0-2.2,3.3-5.6,8.6c9,5.6,31.3,16.8,57,10.5l1.8-21.8l-27.2,4.1L1624.4,376.3z"/>
					<path class="st18" d="M1577.1,246.1c0,0-13.5-8.1-16.4-13.3s1.5-4.4,1.5-4.4s-6.4-9.5-3.3-12.7s14.7,2.7,14.7,2.7
						s-4-7.4-1.1-8.8c2.9-1.4,5.8,3.1,13.4,6c5.2,2,18.1,5.1,18,11.7c6.2,2.4,10.1,10.5,7.4,17.6c-2.6,7.1-8,19.7-8,19.7
						L1577.1,246.1z"/>
					<polygon class="st19" points="1556.3,319.7 1540.7,334.3 1491.9,315.5 1483.9,309.4 1480.4,310.9 1484.6,316.7 1470.5,318.2 
						1472.9,328.8 1494.3,328.6 1545.1,352.7 1570.4,331 					"/>
					<g>
						<path class="st18" d="M1479.6,313.9h-14.1c-5.7,0-10.4,4.7-10.4,10.4v21.4c0,5.7,4.7,10.4,10.4,10.4h14.1
							c5.7,0,10.4-4.7,10.4-10.4v-21.4C1490,318.6,1485.4,313.9,1479.6,313.9z"/>
						<rect x="1442.5" y="303.8" class="st20" width="60.1" height="44.2"/>
						<g>
							<polygon class="st5" points="1502.6,311 1442.5,316.4 1442.5,313.8 1502.6,308.4 							"/>
							<polygon class="st5" points="1502.6,320 1442.5,325.4 1442.5,322.8 1502.6,317.4 							"/>
							<polygon class="st5" points="1502.6,329 1442.5,334.4 1442.5,331.8 1502.6,326.4 							"/>
							<polygon class="st5" points="1502.6,338 1442.5,343.4 1442.5,340.8 1502.6,335.4 							"/>
						</g>
					</g>
					<polygon class="st21" points="1572,294.4 1549.7,322.2 1569.4,336.5 1585.1,319 					"/>
					<path class="st22" d="M1599.4,274c9.3-1.8,26.8,3.1,34.4,18.2s24.3,60.2,22.1,87c0,0-32.8,15.1-60,3.9c0,0-2.8-33.4-6.9-47.6
						c-4.2-14.2-11.8-14.4-17-41.2C1572,294.4,1584.4,276.9,1599.4,274z"/>
					<path class="st5" d="M1595,374l31.6-64.6l-37.6,26.2C1591.8,345.2,1593.9,363.1,1595,374z"/>
					<path class="st4" d="M1589.7,317.8l-18.4,21l-59-14.2c0,0-15.3-12.4-16.8-11.2c-1.6,1.2,4.4,8.7,4.4,8.7l-14.2,2.5l-9.4-0.7
						l6,13.3l11.1,1.6l17.2-2.3l65.9,23l34.4-27.7L1589.7,317.8z"/>
					<path class="st21" d="M1623.6,288.7c-8.4-5.5-17.1,0.7-23.8,8.2c-6.7,7.5-16.1,21-16.1,21l24.8,21c0,0,18.1-24,20.2-30.1
						C1631.9,299.3,1629.4,292.4,1623.6,288.7z"/>
					<path class="st4" d="M1575.2,236l-2.7,14.5h4.1c0,0-0.6,7.2-0.6,10.3c0,3.1,1.7,6.2,9.1,5.3l1.7,19.9c0,0,9.7,4.2,18.4-11.5
						l-3.8-19.2c0,0,5.2-0.8,5.6-6.2c0.5-5.4-6.3-2.7-6.3-2.7l-1.6,10.3l-4.8,1l0.5-17.4c0,0-11.2,2.3-14.3-0.7
						c-1.6-1.6-2.7-3.7-2.7-3.7h-2.6V236z"/>
					<g>
						<polygon class="st8" points="1625.3,458.6 1541.5,458.6 1539.4,451.2 1623.2,451.2 						"/>
						<polygon class="st8" points="1635.1,493.5 1551.2,493.5 1549.1,486 1633,486 						"/>
						<polygon class="st8" points="1644.8,528.4 1560.9,528.4 1558.9,520.9 1642.7,520.9 						"/>
						<polygon class="st8" points="1654.5,563.2 1570.7,563.2 1568.6,555.8 1652.5,555.8 						"/>
						<polygon class="st8" points="1664.3,598.1 1580.4,598.1 1578.3,590.6 1662.2,590.6 						"/>
						<polygon class="st8" points="1674,633 1590.2,633 1588.1,625.5 1671.9,625.5 						"/>
						<polygon class="st8" points="1683.8,667.9 1599.9,667.9 1597.8,660.4 1681.7,660.4 						"/>
						<polygon class="st8" points="1693.5,702.7 1609.6,702.7 1607.5,695.3 1691.4,695.3 						"/>
						<polygon class="st8" points="1703.2,737.6 1619.4,737.6 1617.3,730.1 1701.2,730.1 						"/>
						<polygon class="st8" points="1713,772.5 1629.1,772.5 1627,765 1710.9,765 						"/>
						<polygon class="st8" points="1722.7,807.3 1638.8,807.3 1636.8,799.9 1720.6,799.9 						"/>
						<polygon class="st8" points="1732.4,842.2 1648.6,842.2 1646.5,834.8 1730.4,834.8 						"/>
						<polygon class="st8" points="1742.2,877.1 1658.3,877.1 1656.2,869.6 1740.1,869.6 						"/>
						<g>
							
								<linearGradient id="SVGID_7_" gradientUnits="userSpaceOnUse" x1="1525.3" y1="413.4" x2="1673.8" y2="413.4" gradientTransform="matrix(1 0 0 -1 0 1080)">
								<stop  offset="0" style="stop-color:#FFE6DA"/>
								<stop  offset="0.3854" style="stop-color:#FFE8DD"/>
								<stop  offset="0.6589" style="stop-color:#FFEEE6"/>
								<stop  offset="0.897" style="stop-color:#FFF9F6"/>
								<stop  offset="1" style="stop-color:#FFFFFF"/>
							</linearGradient>
							<polygon class="st23" points="1673.8,915.7 1664.4,915.7 1525.3,417.5 1534.6,417.5 							"/>
							
								<linearGradient id="SVGID_8_" gradientUnits="userSpaceOnUse" x1="1609.2" y1="413.4" x2="1757.6" y2="413.4" gradientTransform="matrix(1 0 0 -1 0 1080)">
								<stop  offset="0" style="stop-color:#FFE6DA"/>
								<stop  offset="0.3854" style="stop-color:#FFE8DD"/>
								<stop  offset="0.6589" style="stop-color:#FFEEE6"/>
								<stop  offset="0.897" style="stop-color:#FFF9F6"/>
								<stop  offset="1" style="stop-color:#FFFFFF"/>
							</linearGradient>
							<polygon class="st24" points="1757.6,915.7 1748.3,915.7 1609.2,417.5 1618.5,417.5 							"/>
						</g>
					</g>
					<rect x="1347.4" y="406.5" class="st25" width="266.6" height="385.6"/>
					
						<linearGradient id="SVGID_9_" gradientUnits="userSpaceOnUse" x1="1320" y1="305.1928" x2="1320" y2="665.8915" gradientTransform="matrix(1 0 0 -1 0 1080)">
						<stop  offset="0" style="stop-color:#402C2C"/>
						<stop  offset="0.2802" style="stop-color:#5A3E3E"/>
						<stop  offset="0.753" style="stop-color:#815858"/>
						<stop  offset="1" style="stop-color:#906262"/>
					</linearGradient>
					<polygon class="st26" points="1292.6,792 1347.4,792 1347.4,406.5 1292.6,406.5 					"/>
					<rect x="1356.4" y="414.7" class="st9" width="248.5" height="369"/>
					<g id="Gear2">
						<path class="st16" d="M1599,702.4c0.3-3.2,0.5-6.5,0.5-9.8s-0.5-6.6-1-9.7l-15.5,0.4c-0.7-3.9-1.9-7.7-3.3-11.4l13.3-8.1
							c-2.7-6-6.2-11.6-10.3-16.6l-13.2,8.1c-2.6-3-5.5-5.7-8.6-8.2l7.4-13.6c-5.3-3.8-11-7-17.1-9.4l-7.4,13.7
							c-3.7-1.3-7.5-2.2-11.5-2.8l-0.4-15.5c-3.2-0.3-6.5-0.5-9.8-0.5c-3.3,0.1-6.6,0.5-9.7,1l0.4,15.5c-3.9,0.7-7.7,1.9-11.4,3.3
							l-8.1-13.3c-6,2.7-11.6,6.2-16.6,10.3l8.1,13.2c-3,2.6-5.7,5.5-8.2,8.6l-13.6-7.4c-3.8,5.3-7,11-9.4,17.1l13.7,7.4
							c-1.3,3.7-2.2,7.5-2.8,11.5l-15.5,0.4c-0.3,3.2-0.5,6.5-0.5,9.8c0.1,3.3,0.5,6.6,1,9.7l15.5-0.4c0.7,3.9,1.9,7.7,3.3,11.4
							l-13.3,8.1c2.7,6,6.2,11.6,10.3,16.6l13.2-8.1c2.6,3,5.5,5.7,8.6,8.2l-7.4,13.6c5.3,3.8,11,7,17.1,9.4l7.4-13.7
							c3.7,1.3,7.5,2.2,11.5,2.8l0.4,15.5c3.2,0.3,6.5,0.5,9.8,0.5c3.3-0.1,6.6-0.5,9.7-1l-0.4-15.5c3.9-0.7,7.7-1.9,11.4-3.3
							l8.1,13.3c6-2.7,11.6-6.2,16.6-10.3l-8.1-13.2c3-2.6,5.7-5.5,8.2-8.6l13.6,7.4c3.8-5.3,7-11,9.4-17.1l-13.7-7.4
							c1.3-3.7,2.2-7.5,2.8-11.5L1599,702.4z M1524.3,708.5c-7.7,0.2-14.1-5.9-14.3-13.6c-0.2-7.7,5.9-14.1,13.6-14.3
							s14.1,5.9,14.3,13.6C1538,701.9,1532,708.3,1524.3,708.5z"/>
						<path class="st27" d="M1556,693.8c0.5,17.7-13.5,32.5-31.3,32.9c-17.7,0.5-32.5-13.5-32.9-31.3c-0.5-17.7,13.5-32.5,31.3-32.9
							C1540.8,662,1555.5,676,1556,693.8z"/>
						<path class="st27" d="M1569.8,693.4c0.6,25.3-19.4,46.4-44.7,47c-25.3,0.6-46.4-19.4-47-44.7s19.4-46.4,44.7-47
							S1569.1,668.1,1569.8,693.4z"/>
						
							<animateTransform  accumulate="none" additive="replace" attributeName="transform" attributeType="XML" calcMode="linear" dur="6s" fill="remove" from="0 1514 700" repeatCount="indefinite" restart="always" to="-360 1515 700" type="rotate">
							</animateTransform>
					</g>
					<g id="Gear1">
						<path class="st16" d="M1558.8,543.6c0.5-4.2,0.9-8.4,0.9-12.8c0-4.3-0.4-8.6-0.9-12.8h-20.3c-0.8-5.2-2.2-10.2-4-15l17.6-10.2
							c-3.3-8-7.7-15.3-12.9-22.1l-17.5,10.1c-3.3-4-7-7.7-11-11l10.1-17.5c-6.7-5.2-14.1-9.6-22.1-12.9l-10.2,17.6
							c-4.8-1.8-9.8-3.1-15-4v-20.3c-4.2-0.5-8.4-0.9-12.8-0.9c-4.3,0-8.6,0.4-12.8,0.9V453c-5.2,0.8-10.2,2.2-15,4l-10.2-17.6
							c-8,3.3-15.3,7.7-22.1,12.9L1411,470c-4,3.3-7.7,7-11,11l-17.5-10.1c-5.2,6.7-9.6,14.1-12.9,22.1l17.6,10.2
							c-1.8,4.8-3.1,9.8-4,15H1363c-0.5,4.2-0.9,8.4-0.9,12.8c0,4.3,0.4,8.6,0.9,12.8h20.3c0.8,5.2,2.2,10.2,4,15l-17.6,10.2
							c3.3,8,7.7,15.3,12.9,22.1l17.5-10.1c3.3,4,7,7.7,11,11l-10.1,17.5c6.7,5.2,14.1,9.6,22.1,12.9l10.2-17.6
							c4.8,1.8,9.8,3.1,15,4v20.3c4.2,0.5,8.4,0.9,12.8,0.9c4.3,0,8.6-0.4,12.8-0.9v-20.3c5.2-0.8,10.2-2.2,15-4l10.2,17.6
							c8-3.3,15.3-7.7,22.1-12.9l-10.1-17.5c4-3.3,7.7-7,11-11l17.5,10.1c5.2-6.7,9.6-14.1,12.9-22.1l-17.6-10.2
							c1.8-4.8,3.1-9.8,4-15h19.9V543.6z M1460.9,549.1c-10.1,0-18.3-8.2-18.3-18.3s8.2-18.3,18.3-18.3c10.1,0,18.3,8.2,18.3,18.3
							C1479.2,540.9,1471,549.1,1460.9,549.1z"/>
						<ellipse class="st27" cx="1460.9" cy="530.8" rx="42" ry="42"/>
						<ellipse class="st27" cx="1460.9" cy="530.8" rx="60" ry="60"/>
						
							<animateTransform  accumulate="none" additive="replace" attributeName="transform" attributeType="XML" calcMode="linear" dur="6s" fill="remove" from="0 1460.9 530.8" repeatCount="indefinite" restart="always" to="360 1460.9 530.8" type="rotate">
							</animateTransform>
					</g>
					<g>
						<path class="st9" d="M1228.2,892.6l-9.6,26.4h51.8c0,0-14.1-12.7-28.8-15l-3.6-7.8L1228.2,892.6z"/>
						<path class="st9" d="M1336.8,892.6l-7.1,26.4h51.8c0,0-14.1-12.7-28.8-15l-3.6-7.8L1336.8,892.6z"/>
						<path class="st16" d="M1333.5,630.3l18.2,268.3h-18.2c0,0-24.1-93.6-21-119.6L1280,630.3H1333.5z"/>
						<path class="st5" d="M1287.9,666.4l24.7,112.6c-3.1,26,21,119.6,21,119.6h18.2l-9.6-140.6l-36.1-102.4L1287.9,666.4z"/>
						<path class="st16" d="M1315.9,634.2l-75.1,264.4h-17.5c0,0,12-111.8,27.6-132.2l10.5-132.2h56.3"/>
						<path class="st4" d="M1358,499.6l76.3-57.7l20-17.3l13.2,1l3.9,5.6l-15.7,7.6c0,0,11.6,2.7,11.6,4.1s-18.2,4.7-24.7,4.9
							l-60,60.4l-26.2,15.5L1358,499.6z"/>
						<path class="st6" d="M1336.5,505.4l24.8-13.7c0,0,9.3,16.7,10.3,31.5l-41.9,35.7L1336.5,505.4z"/>
						<polygon class="st5" points="1341.2,549 1336.2,508 1336.2,508 1329.7,558.8 						"/>
						<polygon class="st4" points="1219.8,625.3 1232.2,596 1247.7,604.5 1237.6,630.3 						"/>
						<path class="st4" d="M1301.1,466.1l10.4,17l-5.2,2.5c0,0,3.5,10.2,1.9,14s-7.1,5.9-7.1,9.4s1.5,10.6,1.5,10.6l-19.6,8.1
							c0,0-2.7-17.6-5.1-19.5s-18.3-9.1-16.5-21.3l29-23.3L1301.1,466.1z"/>
						<path class="st9" d="M1285.6,499c-2.6,0.2-5.6-0.5-7.4-5.3s0.8-6.4,3.1-6.8c2.3-0.3,6.1,8.7,7.5,7.6s-0.9-12.5-0.9-12.5
							c3.5-4.6,1-11.2,1-11.2l-4.3-2.4l-23.2,18.6c-1.8,12.2,14,19.5,16.5,21.3c0.8,0.6,1.6,2.5,2.3,4.8
							C1288,507.8,1285.6,499,1285.6,499z"/>
						<path class="st6" d="M1250.8,543.7c20.2-14.8,70.2-28.2,85.7-38.3c0,0-4.2,106.3,4.7,140.9c0,0-35.9,7.9-87.4,4.8
							C1253.9,651.1,1263.8,576.1,1250.8,543.7z"/>
						<path class="st5" d="M1297.5,533.2c0,0,15.3,64.2,5.4,101C1313.1,600.6,1306.1,554.8,1297.5,533.2z"/>
						<path class="st5" d="M1266.9,577.4l-9.3,5.8c0.4,9.7,0.2,19.4-0.3,27.9L1266.9,577.4z"/>
						<path class="st6" d="M1250.8,543.7c-10.6,8.3-27.6,57.2-27.6,57.2l32.5,12.2l11.1-35.7C1266.9,577.4,1262,550.9,1250.8,543.7z
							"/>
						<path class="st5" d="M1298.7,577.6c-0.2-1.7-0.6-3.5-1.1-5.2s-1.2-3.4-2-4.9l-7.8,2.5c-1.3-2.1-2.8-4-4.6-5.5l3.8-7.3
							c-2.8-2.2-6-3.8-9.4-4.9l-3.8,7.3c-2.3-0.6-4.7-0.8-7.2-0.6l-2.5-7.8c-1.7,0.2-3.5,0.6-5.2,1.1s-3.4,1.2-4.9,2l2.5,7.8
							c-2.1,1.3-4,2.8-5.5,4.6l-7.3-3.8c-2.2,2.8-3.8,6-4.9,9.4l7.3,3.8c-0.6,2.3-0.8,4.7-0.6,7.2l-7.8,2.5c0.2,1.7,0.6,3.5,1.1,5.2
							s1.2,3.4,2,4.9l7.8-2.5c1.3,2.1,2.8,4,4.6,5.5l-3.8,7.3c2.8,2.2,6,3.8,9.4,4.9l3.8-7.3c2.3,0.6,4.7,0.8,7.2,0.6l2.5,7.8
							c1.7-0.2,3.5-0.6,5.2-1.1s3.4-1.2,4.9-2l-2.5-7.8c2.1-1.3,4-2.8,5.5-4.6l7.3,3.8c2.2-2.8,3.8-6,4.9-9.4l-7.3-3.8
							c0.6-2.3,0.8-4.7,0.6-7.2L1298.7,577.6z M1270.1,588c-3.5,1.1-7.2-0.8-8.3-4.3c-1.1-3.5,0.8-7.2,4.3-8.3s7.2,0.8,8.3,4.3
							C1275.5,583.2,1273.6,586.9,1270.1,588z"/>
						<path class="st16" d="M1301.8,574.5c-0.2-1.7-0.6-3.5-1.1-5.2s-1.2-3.4-2-4.9l-7.8,2.5c-1.3-2.1-2.8-4-4.6-5.5l3.8-7.3
							c-2.8-2.2-6-3.8-9.4-4.9l-3.8,7.3c-2.3-0.6-4.7-0.8-7.2-0.6l-2.5-7.8c-1.7,0.2-3.5,0.6-5.2,1.1s-3.4,1.2-4.9,2l2.5,7.8
							c-2.1,1.3-4,2.8-5.5,4.6l-7.3-3.8c-2.2,2.8-3.8,6-4.9,9.4l7.3,3.8c-0.6,2.3-0.8,4.7-0.6,7.2l-7.8,2.5c0.2,1.7,0.6,3.5,1.1,5.2
							s1.2,3.4,2,4.9l7.8-2.5c1.3,2.1,2.8,4,4.6,5.5l-3.8,7.3c2.8,2.2,6,3.8,9.4,4.9l3.8-7.3c2.3,0.6,4.7,0.8,7.2,0.6l2.5,7.8
							c1.7-0.2,3.5-0.6,5.2-1.1s3.4-1.2,4.9-2l-2.5-7.8c2.1-1.3,4-2.8,5.5-4.6l7.3,3.8c2.2-2.8,3.8-6,4.9-9.4l-7.3-3.8
							c0.6-2.3,0.8-4.7,0.6-7.2L1301.8,574.5z M1273.2,584.9c-3.5,1.1-7.2-0.8-8.3-4.3c-1.1-3.5,0.8-7.2,4.3-8.3s7.2,0.8,8.3,4.3
							C1278.6,580.1,1276.7,583.8,1273.2,584.9z"/>
						<path class="st22" d="M1281.9,521.3c0,0,3.8,3,12,2.1v9.8l-13.6-4.4L1281.9,521.3z"/>
						<path class="st22" d="M1293.8,523.4l7.1,7.4l6.8-12.7l-5.2-4.4C1302.5,513.7,1300.6,518.7,1293.8,523.4z"/>
						<polygon class="st5" points="1301.1,466.1 1290.4,463.6 1261.3,486.9 1304.7,472.1 						"/>
						<path class="st10" d="M1261.3,486.9c0,0,57.6-27.2,57.2-28.2c-0.3-1-16.3,4.9-16.3,4.9s-6.8-13.4-18.3-11.5
							c-11.5,1.8-23.6,13.9-24.6,19.6C1258.4,477.5,1261.3,486.9,1261.3,486.9z"/>
						<path class="st4" d="M1218.4,634.2c2.8,7,16.7,7.2,64.3-25.8c0,0,11.3-1,15.9-5c4.7-4.1,9.3-14.2,9.3-14.2l-1.9-1.2
							c0,0-13.4,7.4-15.7,6.4c-2.3-1,4.1-9.3,3.1-9.9c-1-0.6-11.5,7.2-15.1,14c0,0-32.8,13-45.4,18.4
							C1220.2,622.3,1215.9,627.8,1218.4,634.2z"/>
					</g>
					
						<linearGradient id="SVGID_10_" gradientUnits="userSpaceOnUse" x1="1417.45" y1="304.3195" x2="1417.45" y2="473.2025" gradientTransform="matrix(1 0 0 -1 0 1080)">
						<stop  offset="0" style="stop-color:#402C2C"/>
						<stop  offset="0.2802" style="stop-color:#5A3E3E"/>
						<stop  offset="0.753" style="stop-color:#815858"/>
						<stop  offset="1" style="stop-color:#906262"/>
					</linearGradient>
					<polygon class="st28" points="1356.4,603.2 1356.4,783.7 1478.5,783.7 					"/>
					
						<linearGradient id="SVGID_11_" gradientUnits="userSpaceOnUse" x1="3853.8303" y1="-997.2651" x2="3853.8303" y2="-869.8422" gradientTransform="matrix(-1 0 0 1 5412.6807 1418.4689)">
						<stop  offset="0" style="stop-color:#402C2C"/>
						<stop  offset="0.2802" style="stop-color:#5A3E3E"/>
						<stop  offset="0.753" style="stop-color:#815858"/>
						<stop  offset="1" style="stop-color:#906262"/>
					</linearGradient>
					<polygon class="st29" points="1604.9,551.3 1604.9,415.1 1512.8,415.1 					"/>
					<g>
						<rect x="1424.5" y="375.9" class="st20" width="78.4" height="30.5"/>
						<rect x="1424.5" y="396.2" class="st5" width="78.4" height="10.2"/>
					</g>
				</g>
				<g>
					<g>
						
							<linearGradient id="SVGID_12_" gradientUnits="userSpaceOnUse" x1="1135.1" y1="303.8694" x2="1139.1504" y2="373.6608" gradientTransform="matrix(1 0 0 -1 0 1080)">
							<stop  offset="0" style="stop-color:#FFE6DA"/>
							<stop  offset="0.326" style="stop-color:#FFE3D8"/>
							<stop  offset="0.5573" style="stop-color:#FFDAD0"/>
							<stop  offset="0.7592" style="stop-color:#FFCAC4"/>
							<stop  offset="0.9434" style="stop-color:#FFB4B3"/>
							<stop  offset="1" style="stop-color:#FFACAC"/>
						</linearGradient>
						<path class="st30" d="M1137.6,679.1c29.9,0,15.1,106.5,0,106.5S1111,679.1,1137.6,679.1z"/>
						<line class="st3" x1="1137.2" y1="679.1" x2="1137.2" y2="808.2"/>
					</g>
					<g>
						
							<linearGradient id="SVGID_13_" gradientUnits="userSpaceOnUse" x1="1072.8511" y1="368.1529" x2="1110.5507" y2="308.9552" gradientTransform="matrix(1 0 0 -1 0 1080)">
							<stop  offset="0" style="stop-color:#FFE6DA"/>
							<stop  offset="0.326" style="stop-color:#FFE3D8"/>
							<stop  offset="0.5573" style="stop-color:#FFDAD0"/>
							<stop  offset="0.7592" style="stop-color:#FFCAC4"/>
							<stop  offset="0.9434" style="stop-color:#FFB4B3"/>
							<stop  offset="1" style="stop-color:#FFACAC"/>
						</linearGradient>
						<path class="st31" d="M1078.9,716.3c26.7-13.5,51.6,69,38.2,75.7C1103.7,798.8,1055.2,728.3,1078.9,716.3z"/>
						<line class="st3" x1="1078.6" y1="716.5" x2="1124.9" y2="808.3"/>
					</g>
					<g>
						
							<linearGradient id="SVGID_14_" gradientUnits="userSpaceOnUse" x1="2588.5283" y1="368.155" x2="2626.228" y2="308.9573" gradientTransform="matrix(-1 0 0 -1 3793.0986 1080)">
							<stop  offset="0" style="stop-color:#FFE6DA"/>
							<stop  offset="0.326" style="stop-color:#FFE3D8"/>
							<stop  offset="0.5573" style="stop-color:#FFDAD0"/>
							<stop  offset="0.7592" style="stop-color:#FFCAC4"/>
							<stop  offset="0.9434" style="stop-color:#FFB4B3"/>
							<stop  offset="1" style="stop-color:#FFACAC"/>
						</linearGradient>
						<path class="st32" d="M1198.5,716.3c-26.7-13.5-51.6,69-38.2,75.7C1173.8,798.8,1222.2,728.3,1198.5,716.3z"/>
						<line class="st3" x1="1198.8" y1="716.5" x2="1152.6" y2="808.3"/>
					</g>
					<rect x="1108.1" y="803.9" class="st16" width="61.5" height="7.9"/>
					<polygon class="st16" points="1160.1,865.8 1117.5,865.8 1111.5,807.9 1166.1,807.9 					"/>
					<polygon class="st5" points="1164.3,825.6 1165.8,811.8 1111.9,811.8 1111.9,811.9 					"/>
				</g>
			</g>
		</g>
	</g>
	<line class="st3" x1="1099.9" y1="833.8" x2="1193.4" y2="833.8"/>
</g>
<g>
	<polygon class="st33" points="829.7,353.1 424.8,626.8 427.8,545.5 832.7,271.8 	"/>
	<g>
		<path d="M448.4,559.8c1.4,1.3,2.1,3.9,1.9,8c-0.1,4.1-1,7.8-2.6,11.1c-1.6,3.4-3.8,6.1-6.9,8.1l-5.2,3.5l1-26.1l5.4-3.6
			C444.9,558.9,447,558.6,448.4,559.8z M447.7,569.7c0.2-6-1.7-7.6-5.9-4.8l-2.7,1.8l-0.7,17.9l2.9-2c1.9-1.3,3.4-3,4.5-5.2
			C447,575.2,447.6,572.7,447.7,569.7z"/>
		<path d="M458.9,569.1l-1.8,7l-2.8,1.9l7.9-30.8l2.8-1.9l6,21.4l-2.8,1.9l-1.4-4.9L458.9,569.1z M465.9,560.4l-2.5-8.8l-3.2,12.7
			L465.9,560.4z"/>
		<path d="M481.9,537.8l-0.8,22.1l-2.7,1.8l0.8-22.1l-4.8,3.2l0.1-4l12.2-8.2l-0.1,4L481.9,537.8z"/>
		<path d="M503.9,519l-0.2,4.1l-8.4,5.7l-0.3,6.9l7.5-5.1l-0.1,3.9l-7.5,5.1l-0.3,7l8.7-5.8l-0.2,4.1l-11.3,7.6l1-26.1L503.9,519z"
			/>
		<path d="M510.1,530.8c-0.3-0.3-0.4-0.9-0.4-1.7s0.2-1.5,0.6-2.3c0.3-0.8,0.7-1.3,1.2-1.6c0.5-0.3,0.9-0.3,1.2,0s0.5,0.9,0.4,1.6
			c0,0.8-0.2,1.5-0.6,2.3c-0.3,0.8-0.8,1.3-1.2,1.6C510.8,531.2,510.4,531.2,510.1,530.8z M509.8,540c-0.3-0.3-0.4-0.9-0.4-1.7
			s0.2-1.5,0.6-2.3c0.3-0.8,0.7-1.3,1.2-1.6s0.9-0.3,1.2,0s0.5,0.9,0.4,1.6c0,0.8-0.2,1.5-0.6,2.3c-0.3,0.8-0.8,1.3-1.2,1.6
			C510.5,540.3,510.1,540.3,509.8,540z"/>
		<path class="st16" d="M535.8,507.4c0.5-1.3,0.7-2.5,0.8-3.6c0-1-0.2-1.8-0.6-2.2c-0.5-0.4-1-0.4-1.8,0.1c-1.3,0.9-2.4,2.7-3.3,5.5
			l-2.1-0.6c0.8-2.2,1.6-4,2.4-5.4c0.9-1.4,2-2.6,3.3-3.5s2.4-1,3.4-0.3c0.9,0.7,1.4,2.3,1.3,4.7c0,1.3-0.3,2.8-0.8,4.3
			s-1.3,3.6-2.5,6.3l-3.9,8.7l7.1-4.8l-0.2,4.2l-10.7,7.3l0.1-3.7l5.1-11.2C534.5,510.7,535.3,508.7,535.8,507.4z"/>
		<path class="st16" d="M547.6,490.9c1.1-2,2.3-3.5,3.8-4.5s2.7-1.2,3.7-0.6s1.4,2,1.3,4c-0.1,2-0.7,4.2-1.9,6.5
			c1.5,0.6,2.1,2.3,2,5.2c-0.1,2.2-0.7,4.5-1.8,6.7s-2.6,4-4.3,5.1c-1.8,1.2-3.1,1.4-4.2,0.6c-1-0.8-1.5-2.3-1.4-4.5
			c0.1-2.9,0.9-5.6,2.5-8.3c-1.1-0.8-1.6-2.2-1.5-4.2C546,494.9,546.5,492.9,547.6,490.9z M548.4,509.9c0.7,0.3,1.4,0.1,2.2-0.4
			s1.5-1.4,2.2-2.6s1.1-2.5,1.1-3.9s-0.2-2.2-0.9-2.5c-0.6-0.3-1.4-0.2-2.2,0.4s-1.6,1.4-2.3,2.6s-1.1,2.5-1.1,3.8
			C547.4,508.8,547.8,509.6,548.4,509.9z M549.1,497.9c0.5,0.4,1.2,0.3,1.9-0.2c0.8-0.5,1.4-1.3,2-2.5c0.6-1.1,0.9-2.3,0.9-3.4
			s-0.2-1.8-0.7-2.2c-0.5-0.4-1.2-0.3-1.9,0.2c-0.8,0.5-1.4,1.3-2,2.5c-0.6,1.1-0.9,2.2-0.9,3.4
			C548.3,496.7,548.5,497.5,549.1,497.9z"/>
		<path class="st16" d="M566.3,486.2l-0.4,10.1c0,0.9,0.1,1.6,0.4,2c0.3,0.4,0.7,0.4,1.2,0s1.1-1.1,1.6-2.4l0.9,2.3
			c-0.9,1.9-1.9,3.2-3,4c-1.1,0.7-2,0.7-2.7,0s-1-2.1-1-4.2l0.4-10l-1.5,1l0.1-3.4l1.5-1l0.2-6.2l2.5-1.7l-0.2,6.2l3.1-2.1l-0.1,3.4
			L566.3,486.2z"/>
		<path class="st16" d="M578.2,483.8l-0.4,10.8l-2.5,1.7l1-27.7l2.5-1.7l-0.4,11.4c0.4-1.5,1-2.8,1.7-4c0.8-1.2,1.5-2.1,2.4-2.6
			c1.3-0.9,2.4-1,3.2-0.2s1.1,2.5,1,5.1l-0.4,12.2l-2.5,1.7l0.4-10.9c0.1-3.7-0.7-4.9-2.5-3.6c-0.9,0.6-1.6,1.6-2.3,3
			C578.6,480.3,578.2,482,578.2,483.8z"/>
		<path class="st16" d="M606.2,453.9l-0.3,7.2l7-4.7l-0.1,4.1l-7,4.7l-0.4,10.8l-2.7,1.8l1-26.1l10.5-7.1l-0.2,4.1L606.2,453.9z"/>
		<path class="st16" d="M630.6,451l-9.4,6.3c0,1.4,0.4,2.3,1.1,2.7c0.7,0.4,1.5,0.3,2.5-0.4c1.5-1,2.7-2.6,3.5-4.7l1.3,1.6
			c-1.4,3.1-3.1,5.3-5.2,6.7c-1.7,1.1-3.1,1.2-4.2,0.1c-1.1-1.1-1.6-3.1-1.5-6.3c0.1-3.1,0.8-6,2.1-8.7s2.7-4.5,4.3-5.6
			s3-1.2,4.1-0.4c1.1,0.9,1.6,2.7,1.5,5.6L630.6,451z M621.3,454l6.9-4.6c0.1-1.7-0.2-2.7-0.8-3.2s-1.4-0.4-2.3,0.2
			c-0.9,0.6-1.8,1.6-2.5,3.1C621.8,450.9,621.4,452.4,621.3,454z"/>
		<path class="st16" d="M643.4,430.5c1.6-1.1,2.9-1.1,4,0s1.6,3.1,1.4,6.2c-0.1,3.1-0.8,5.9-2,8.6s-2.6,4.5-4.1,5.5
			s-2.8,0.8-3.9-0.5l-0.1,3l-2.5,1.7l1-27.7l2.5-1.7l-0.4,11.3C640.4,433.7,641.8,431.6,643.4,430.5z M639.1,443.5
			c-0.1,1.9,0.2,3.2,0.9,3.9c0.6,0.7,1.5,0.8,2.5,0.1c1-0.7,1.9-1.8,2.7-3.5s1.2-3.5,1.3-5.4s-0.2-3.2-0.9-4s-1.5-0.8-2.5-0.1
			c-1,0.7-1.9,1.9-2.6,3.6C639.6,439.8,639.2,441.6,639.1,443.5z"/>
		<path class="st16" d="M668.5,433.5c-1.5,1-2.7,1.2-3.7,0.5s-1.4-2.2-1.3-4.5c0.1-2.8,1.4-6.1,4-10c-0.6-0.8-1-1.4-1.2-2
			s-0.3-1.4-0.3-2.6c0.1-2,0.6-3.8,1.5-5.5s2-2.9,3.2-3.7c1.2-0.8,2.2-1,3-0.5s1.2,1.6,1.1,3.4c-0.1,2.5-1.4,5.6-3.9,9.4
			c1.1,1.6,2,2.8,2.7,3.6c0.5-1.5,0.9-3,1.2-4.7l1.8,0.9c-0.5,2-0.9,3.8-1.5,5.4c0.6,0.6,1.3,1.3,2.2,2.1l-1.8,3.8l-1.9-2
			C672.2,430,670.5,432.2,668.5,433.5z M666.7,430.1c0.5,0.3,1.3,0.2,2.2-0.5c0.9-0.6,2-2,3.1-4.2c-1.4-1.6-2.5-3-3.4-4.2
			c-1.7,2.7-2.7,4.9-2.7,6.7C665.9,429.1,666.2,429.8,666.7,430.1z M670.5,409c-0.5,0.3-1,0.9-1.4,1.7c-0.4,0.8-0.6,1.5-0.7,2.2
			c0,0.7,0.1,1.3,0.2,1.7c0.2,0.4,0.5,1,1,1.6c1.7-2.5,2.6-4.4,2.7-5.6c0-1-0.1-1.6-0.5-1.8C671.5,408.6,671,408.7,670.5,409z"/>
		<path class="st16" d="M691.9,392l5.7-3.9l-1,26.1l-2.5,1.7l0.8-22.2l-3.2,2.2L691.9,392z"/>
		<path class="st16" d="M712.6,397.6c-0.1,1.9-0.5,3.7-1.4,5.4c-0.9,1.7-1.9,3-3.2,3.8c-0.9,0.6-1.8,0.9-2.7,1s-1.7-0.1-2.4-0.5
			l1.3-4.1c1.3,0.8,2.6,0.8,4-0.1c0.6-0.4,1-0.9,1.4-1.6c0.3-0.7,0.5-1.3,0.6-2c0-1-0.7-1.4-2.3-1.1c-0.1,0-0.2,0-0.3,0
			c-2.4,0.6-3.6-0.5-3.5-3.1c0.1-1.8,0.6-3.6,1.5-5.3c0.9-1.7,2-3,3.4-3.9s2.7-1.1,3.8-0.6l-1.1,3.7c-0.9-0.4-2-0.2-3.1,0.5
			c-0.6,0.4-1.1,0.9-1.5,1.5s-0.6,1.3-0.6,2c0,0.6,0.2,1,0.5,1s0.6,0,1.1-0.1s0.9-0.2,1.3-0.3c0.4-0.1,0.7-0.1,1.1-0.1
			c0.3,0,0.7,0.1,1.1,0.3C712.4,394.6,712.7,395.7,712.6,397.6z"/>
		<path class="st16" d="M722.2,380.8l-0.4,10.1c0,0.9,0.1,1.6,0.4,2c0.3,0.4,0.7,0.4,1.2,0s1.1-1.1,1.6-2.4l0.9,2.3
			c-0.9,1.9-1.9,3.2-3,4c-1.1,0.7-2,0.7-2.7,0s-1-2.1-1-4.2l0.4-10l-1.5,1l0.1-3.4l1.5-1l0.2-6.2l2.5-1.7l-0.2,6.2l3.1-2.1l-0.1,3.4
			L722.2,380.8z"/>
		<path class="st16" d="M743.5,382.5l-2.7,1.8l1-26.1l4.1-2.8l4.1,13.2l5.3-19.6l4.1-2.8l-1,26.1l-2.7,1.8l0.7-20.4l-6.1,21.8
			l-1.5,1l-4.8-14.4L743.5,382.5z"/>
		<path class="st16" d="M775.5,360.9l-2.3,1.5l0.1-2.7c-1.1,2.6-2.4,4.5-4.1,5.6c-1.2,0.8-2.3,1-3,0.3c-0.8-0.6-1.1-1.9-1.1-3.9
			c0.1-2,0.6-3.7,1.5-5.3c0.9-1.6,2.1-2.8,3.6-3.8l3.3-2.2v-0.7c0.1-2.6-0.7-3.4-2.5-2.2c-1.1,0.7-2.3,2.2-3.5,4.4l-1-1.9
			c1.5-2.9,3.2-5,5-6.2c1.4-1,2.5-1.1,3.4-0.6c0.8,0.6,1.2,2.1,1.1,4.7L775.5,360.9z M773.2,355.2l0.1-1.7l-2.8,1.9
			c-1.8,1.2-2.8,2.8-2.8,4.7c0,1,0.2,1.6,0.6,1.8c0.4,0.2,1,0,1.8-0.5s1.5-1.4,2.1-2.5C772.8,357.7,773.2,356.5,773.2,355.2z"/>
		<path class="st16" d="M789,336.2c-1.2,0.8-2.2,2.1-2.9,3.9s-1.1,3.8-1.1,6.1l-0.3,8.5l-2.5,1.7l0.7-19.9l2.5-1.7l-0.1,4
			c0.4-1.5,1-2.9,1.8-4.2s1.5-2.2,2.3-2.7l-0.1,4.2C789.1,336.1,789.1,336.2,789,336.2z"/>
		<path class="st16" d="M799.6,344.9c-1.7,1.1-3.1,1.2-4.2,0.1c-1.1-1.1-1.6-3.1-1.5-6.2c0.1-3,0.8-5.9,2.1-8.7
			c1.3-2.7,2.9-4.7,4.7-5.9c1.8-1.2,3.3-1.2,4.5,0l-1.6,4c-1-0.8-2-0.8-3-0.1c-1,0.7-2,1.9-2.8,3.6s-1.3,3.4-1.3,5.3
			c-0.1,1.8,0.3,3.1,1,3.9s1.6,0.8,2.8,0c1.1-0.8,2.2-2.3,3.3-4.7l1.4,1.7C803.3,341.3,801.5,343.6,799.6,344.9z"/>
		<path class="st16" d="M813.4,324.8l-0.4,10.8l-2.5,1.7l1-27.7l2.5-1.7l-0.4,11.4c0.4-1.5,1-2.8,1.7-4c0.8-1.2,1.5-2.1,2.4-2.6
			c1.3-0.9,2.4-1,3.2-0.2s1.1,2.5,1,5.1l-0.4,12.2l-2.5,1.7l0.4-10.9c0.1-3.7-0.7-4.9-2.5-3.6c-0.9,0.6-1.6,1.6-2.3,3
			C813.8,321.3,813.5,323,813.4,324.8z"/>
	</g>
</g>
<g>
	<g>
		<g>
			
				<linearGradient id="SVGID_15_" gradientUnits="userSpaceOnUse" x1="1303.3691" y1="1124.9266" x2="1561.6604" y2="1124.9266" gradientTransform="matrix(0.9928 -0.6575 -0.9106 -0.4042 174.1036 1997.1729)">
				<stop  offset="0" style="stop-color:#FFC71F"/>
				<stop  offset="1" style="stop-color:#FF056C"/>
			</linearGradient>
			<path class="st34" d="M481.1,702.1l-17.5-7.8l16.7-11L444,667.2l-14.4,9.5l-13.9-6.2l2.3-2.1c3.3-3,5.9-5.7,7.7-8
				c1.8-2.3,3.3-4.6,4.5-6.9l0.2-0.5l13.5-8.9l1.1,1.7l0.8-1.8l56.1,24.9l13.5-8.9l2.2,3.3l-15.3,10.1L445.2,648l-11.7,7.7
				c-1.3,2.4-2.8,4.8-4.6,7.1c-1.5,1.9-3.5,4-5.9,6.4l6.3,2.8l14.4-9.5l45,20l-16.7,11l8.8,3.9l224.5-148.7
				c6.7-4.5,10.2-9.7,9.8-14.8c-0.4-4.9-4.4-9.2-11.1-12.2l-13.1-5.8c-15.2-6.8-39.3-4.5-53.6,5l-185,122.5l-2.2-3.3l185-122.5
				c15.4-10.2,41.1-12.5,57.4-5.3l13.1,5.8c8.2,3.6,13,9.1,13.5,15.5c0.6,6.6-3.5,13.2-11.5,18.5L481.1,702.1z"/>
		</g>
		<g>
			<path class="st16" d="M529.9,639.6l3.1,1.4l5.5-3.7l1.8,0.8l-5.5,3.7l4.7,2.1l-2.1,1.4l-11.5-5.1l8.3-5.5l1.8,0.8L529.9,639.6z"
				/>
			<path class="st16" d="M554.5,632.7c-0.1,1-0.8,2-2.3,2.9c-1.4,0.9-3.1,1.5-4.9,1.8c-1.8,0.2-3.4,0.1-4.6-0.5
				c-1.3-0.6-1.8-1.3-1.8-2.4c0.1-1,0.8-2,2.3-2.9c1.4-0.9,3.1-1.5,4.9-1.8c1.8-0.2,3.4-0.1,4.6,0.5S554.6,631.7,554.5,632.7z
				 M547.6,636c1.1-0.1,2.1-0.5,2.9-1.1c0.9-0.6,1.3-1.2,1.4-1.8c0-0.6-0.4-1.1-1.2-1.5s-1.8-0.5-2.9-0.4c-1.1,0.1-2.1,0.5-2.9,1.1
				c-0.9,0.6-1.3,1.2-1.4,1.8s0.4,1.1,1.2,1.5S546.5,636.1,547.6,636z"/>
			<path class="st16" d="M557.4,624.4c-1,0.7-1.4,1.3-1.3,1.9c0.1,0.6,0.6,1.1,1.6,1.6l3.7,1.7l-2,1.3l-8.7-3.9l2-1.3l1.8,0.8
				c-0.2-0.5-0.2-0.9,0-1.5c0.2-0.5,0.6-1,1.2-1.4l1.9,0.8C557.4,624.3,557.4,624.3,557.4,624.4z"/>
			<path class="st16" d="M571.1,612c2.2-0.4,4.2-0.1,6,0.7s2.6,1.8,2.5,3s-1.4,2.6-3.8,4.2l-4.1,2.7l-11.5-5.1l4.3-2.8
				C566.7,613.2,568.9,612.3,571.1,612z M575,614c-2.6-1.2-5.6-0.7-8.8,1.5l-2.1,1.4l7.9,3.5l2.3-1.5c1.5-1,2.3-1.9,2.5-2.7
				S576.3,614.6,575,614z"/>
			<path class="st16" d="M575,608.8c-0.5,0.1-0.9,0-1.2-0.1s-0.5-0.3-0.4-0.6c0-0.3,0.2-0.5,0.5-0.7s0.8-0.4,1.2-0.4
				c0.5-0.1,0.9,0,1.2,0.1s0.5,0.3,0.4,0.6c0,0.3-0.2,0.5-0.5,0.7S575.5,608.8,575,608.8z M587.3,612.2l-2,1.3l-8.7-3.9l2-1.3
				L587.3,612.2z"/>
			<path class="st16" d="M586.5,603c1.3-0.8,2.8-1.4,4.5-1.6c1.7-0.2,3.2-0.1,4.6,0.5c1.3,0.6,2,1.4,1.9,2.3c-0.1,1-0.7,1.9-1.9,2.6
				s-2.8,1.3-4.7,1.5l4.5,2l-2,1.3l-11.9-5.3l2-1.3l1.5,0.7C584.7,604.8,585.2,603.9,586.5,603z M587.9,607.1
				c0.8,0.4,1.8,0.5,2.9,0.4c1.1-0.1,2-0.5,2.8-1s1.2-1.1,1.3-1.7c0.1-0.6-0.3-1.1-1.2-1.5c-0.8-0.4-1.8-0.5-2.9-0.4
				c-1.1,0.1-2.1,0.5-2.9,1c-0.8,0.5-1.2,1.1-1.2,1.7C586.6,606.2,587,606.7,587.9,607.1z"/>
			<path class="st16" d="M604.2,601l-2,1.3l-12.2-5.4l2-1.3L604.2,601z"/>
			<path class="st16" d="M613.9,593.3c-0.1,1-0.8,2-2.3,2.9c-1.4,0.9-3.1,1.5-4.9,1.8c-1.8,0.2-3.4,0.1-4.6-0.5s-1.8-1.3-1.8-2.4
				c0.1-1,0.8-2,2.3-2.9c1.4-0.9,3.1-1.5,4.9-1.8c1.8-0.2,3.4-0.1,4.6,0.5S614,592.3,613.9,593.3z M607.1,596.6
				c1.1-0.1,2.1-0.5,2.9-1.1c0.9-0.6,1.3-1.2,1.4-1.8s-0.4-1.1-1.2-1.5s-1.8-0.5-2.9-0.4s-2.1,0.5-2.9,1.1c-0.9,0.6-1.3,1.2-1.4,1.8
				s0.4,1.1,1.2,1.5C605,596.7,606,596.8,607.1,596.6z"/>
			<path class="st16" d="M616.1,588l4.7,2.1l-2,1.3l-8.7-3.9l2-1.3l1.6,0.7c-0.2-0.4-0.2-0.9,0-1.4c0.3-0.5,0.7-1,1.4-1.4
				c1.5-1,3.1-1.4,4.8-1.3c-0.2-1.1,0.4-2.2,1.8-3.1c1.1-0.7,2.2-1.2,3.5-1.3c1.3-0.2,2.5,0,3.6,0.5l5.3,2.4l-2,1.3l-4.8-2.1
				c-1.6-0.7-3.1-0.6-4.6,0.4c-0.7,0.4-1.1,0.9-1.2,1.4c-0.1,0.5,0.2,0.9,1,1.3l4.9,2.2l-2,1.3l-4.8-2.1c-0.8-0.4-1.6-0.5-2.3-0.5
				s-1.4,0.3-2.1,0.7c-0.7,0.5-1.1,0.9-1.2,1.5C614.9,587.2,615.3,587.6,616.1,588z"/>
			<path class="st16" d="M644.6,574.3l-1.8,1.2l-1.2-0.5c0.1,0.9-0.5,1.8-1.9,2.7c-1,0.7-2.1,1.1-3.2,1.3s-2.2,0.1-3-0.3
				c-0.9-0.4-1.2-0.9-0.9-1.5s1-1.4,2.2-2.1l2.6-1.7l-0.3-0.1c-1.2-0.5-2.4-0.3-3.8,0.6c-0.9,0.6-1.5,1.3-1.9,2.2l-2,0.1
				c0.3-1.1,1.2-2.2,2.7-3.2c1.1-0.7,2.3-1.2,3.5-1.5c1.2-0.2,2.4-0.1,3.5,0.4L644.6,574.3z M639.4,574.2l-0.7-0.3l-2.3,1.5
				c-1.4,1-1.7,1.6-0.9,2c0.4,0.2,0.9,0.2,1.5,0.1c0.6-0.1,1.2-0.4,1.8-0.8c0.6-0.4,1-0.9,1.2-1.3
				C640.1,574.8,639.9,574.4,639.4,574.2z"/>
		</g>
		<g>
			
				<rect x="505.1" y="600.9" transform="matrix(0.8338 -0.5521 0.5521 0.8338 -237.9266 413.6103)" class="st35" width="125.7" height="2"/>
		</g>
		<g class="st36">
			<path d="M509.3,633.7l-10.8-4.8l2-1.3l9.1,4l5.4-3.6l1.7,0.8L509.3,633.7z"/>
			<path d="M516.3,617l1.7,0.8l-6.3,4.2l2.9,1.3l5.7-3.7l1.6,0.7l-5.7,3.7l2.9,1.3l6.5-4.3l1.7,0.8l-8.5,5.6l-10.8-4.8L516.3,617z"
				/>
			<path d="M535.2,616.5L533,618l-15.6-1.7l2.2-1.5l11.7,1.2l-4.5-6l2.2-1.5L535.2,616.5z"/>
			<path d="M539.1,601.9l1.7,0.8l-6.3,4.2l2.9,1.3l5.7-3.7l1.6,0.7l-5.7,3.7l2.9,1.3l6.5-4.3l1.7,0.8l-8.5,5.6l-10.8-4.8
				L539.1,601.9z"/>
			<path d="M552.7,604.9l-10.8-4.8l2-1.3l9.1,4l5.4-3.6l1.7,0.8L552.7,604.9z"/>
			<path d="M562.7,594.1l-1.6-0.7l5.6-3.7l1.6,0.7L562.7,594.1z"/>
			<path d="M567.6,583.1l4.3-2.8l10.8,4.8l-1.9,1.3l-9.2-4.1l-2.4,1.6L567.6,583.1z"/>
		</g>
	</g>
	<g>
		<g>
			
				<linearGradient id="SVGID_16_" gradientUnits="userSpaceOnUse" x1="1585.6118" y1="1125.89" x2="1849.484" y2="1125.89" gradientTransform="matrix(0.9928 -0.6575 -0.9106 -0.4042 174.1036 1997.1729)">
				<stop  offset="0" style="stop-color:#FF0568"/>
				<stop  offset="1" style="stop-color:#00B2E2"/>
			</linearGradient>
			<path class="st37" d="M762.7,515.2L751,510l0.2-1.5c0.7-5.1,1.3-9.8,1.7-14.1c0.4-4.2,0.5-7.9,0.2-11.2c-0.3-3.1-0.9-5.7-1.9-7.8
				c-0.9-1.9-2.4-3.3-4.5-4.2c-3.1-1.4-6.4-1.9-9.7-1.4c-3.4,0.4-6.7,1.7-9.8,3.8c-2.4,1.6-4,3.3-4.5,4.9c-0.7,1.9-1,3.8-1,5.7v1.7
				l-22.4,3.1l0.1-2.3c0.1-4.5,1.3-8.6,3.5-12.4c2.2-3.7,6.1-7.4,11.9-11.2c3.9-2.6,8-4.7,12.3-6.3c4.3-1.6,8.6-2.8,13-3.4
				s8.6-0.8,12.7-0.3c4.1,0.4,8,1.5,11.6,3c3.3,1.4,5.9,3.5,7.8,6c1.8,2.5,3.2,5.3,4,8.4c0.8,3,1.3,6.3,1.4,9.7
				c0.1,1.9,0.1,3.9,0.1,5.9c0.8-0.6,1.6-1.2,2.5-1.9c2.2-1.7,4.3-3.2,6.2-4.4l15.5-10.2l2.2,3.3L788.4,483c-1.8,1.2-3.8,2.6-6,4.2
				s-4.1,3.2-5.8,4.5l-3.5,2.8l0.2-4.5c0.2-3.3,0.2-6.6,0.1-9.9c-0.1-3.1-0.5-6.1-1.3-8.8c-0.7-2.6-1.8-5-3.4-7
				c-1.5-2-3.6-3.6-6.2-4.7c-3.2-1.4-6.7-2.3-10.4-2.7c-3.8-0.4-7.7-0.3-11.7,0.3c-4,0.6-8.1,1.7-12.2,3.2c-4,1.5-7.9,3.5-11.5,5.9
				c-5.2,3.4-8.8,6.8-10.7,10c-1.5,2.5-2.4,5.2-2.8,8l14.3-2c0.2-1.8,0.5-3.5,1.1-5.2c0.9-2.5,2.9-4.8,6.1-6.9
				c3.6-2.4,7.5-3.9,11.5-4.4c4.1-0.5,8.1,0.1,11.9,1.8c2.9,1.3,5.1,3.4,6.4,6.1c1.2,2.5,2,5.6,2.3,9.2c0.3,3.5,0.2,7.5-0.2,11.9
				c-0.4,3.9-0.9,8.2-1.5,12.7l6.9,3.1l228.4-151.3c6.7-4.4,10.2-9.7,9.8-14.8c-0.4-4.9-4.4-9.2-11.1-12.2l-13.1-5.8
				c-15.2-6.8-39.3-4.5-53.6,5L744,450.1l-2.2-3.3l178.6-118.6c15.4-10.2,41.1-12.6,57.5-5.3l13.1,5.8c8.2,3.6,13,9.1,13.5,15.5
				c0.6,6.6-3.5,13.2-11.5,18.5L762.7,515.2z"/>
		</g>
		<g>
			<path class="st16" d="M810.1,446.4l2.4,1.1l4.3-2.9l1.4,0.6l-4.3,2.9l3.7,1.6l-1.6,1.1l-8.9-4l6.5-4.3l1.4,0.6L810.1,446.4z"/>
			<path class="st16" d="M829.3,441.1c-0.1,0.8-0.7,1.6-1.8,2.3c-1.1,0.7-2.4,1.2-3.8,1.4c-1.4,0.2-2.6,0.1-3.6-0.4
				c-1-0.4-1.4-1-1.4-1.8c0.1-0.8,0.7-1.6,1.8-2.3c1.1-0.7,2.4-1.2,3.8-1.4s2.6-0.1,3.6,0.4C828.9,439.7,829.3,440.3,829.3,441.1z
				 M823.9,443.6c0.9-0.1,1.6-0.4,2.3-0.8s1-0.9,1.1-1.4c0-0.5-0.3-0.9-0.9-1.1c-0.7-0.3-1.4-0.4-2.3-0.3c-0.9,0.1-1.6,0.4-2.3,0.8
				s-1,0.9-1.1,1.4c0,0.5,0.3,0.9,0.9,1.1C822.3,443.6,823.1,443.7,823.9,443.6z"/>
			<path class="st16" d="M831.5,434.6c-0.8,0.5-1.1,1-1,1.5s0.5,0.9,1.3,1.2l2.9,1.3l-1.6,1l-6.8-3l1.6-1l1.4,0.6
				c-0.2-0.4-0.2-0.7,0-1.1s0.5-0.8,0.9-1.1L831.5,434.6C831.5,434.5,831.5,434.6,831.5,434.6z"/>
			<path class="st16" d="M846.8,430.4l-4.3,2.8l-8.9-4l3.8-2.5c0.7-0.4,1.3-0.8,1.9-1c0.6-0.3,1.2-0.4,1.7-0.4
				c0.9-0.1,1.6,0,2.2,0.2c0.7,0.3,1,0.7,0.8,1.2c-0.1,0.2-0.1,0.3-0.1,0.3c0,0.1-0.1,0.2-0.2,0.3c0.7-0.3,1.4-0.6,2.2-0.6
				c0.7-0.1,1.4,0,1.9,0.3c0.6,0.3,0.9,0.7,1,1.2C848.8,428.8,848.2,429.5,846.8,430.4z M839,429.8l2.1-1.4c1.2-0.8,1.4-1.3,0.7-1.7
				c-0.4-0.2-0.9-0.2-1.3-0.1c-0.5,0.1-1,0.4-1.6,0.8l-2.1,1.4L839,429.8z M842.8,431.5l2.6-1.7c0.6-0.4,1-0.7,1.1-1s0-0.5-0.5-0.8
				c-0.8-0.4-1.9-0.1-3.3,0.8l-2.4,1.6L842.8,431.5z"/>
			<path class="st16" d="M852.1,426.8c-0.4,0-0.7,0-1-0.1s-0.4-0.3-0.4-0.5s0.2-0.4,0.5-0.6s0.6-0.3,1-0.4s0.7,0,1,0.1
				s0.4,0.3,0.4,0.5s-0.2,0.4-0.5,0.6S852.5,426.7,852.1,426.8z"/>
			<path class="st16" d="M851.6,418.9l7.5,3.3l-1.6,1.1L850,420l-2.9,2l-1.4-0.6l7.5-5l1.4,0.6L851.6,418.9z"/>
			<path class="st16" d="M867.8,413.5l-5.8,3.8c0.5,0.2,1.2,0.2,1.9,0c0.8-0.2,1.4-0.4,2-0.8c0.9-0.6,1.4-1.2,1.3-1.8l1.8-0.2
				c0,0.9-0.7,1.7-2,2.6c-1,0.7-2.2,1.1-3.6,1.3c-1.4,0.2-2.6,0.1-3.6-0.4s-1.5-1.1-1.4-1.9s0.7-1.5,1.7-2.2s2.1-1.1,3.4-1.3
				s2.4-0.1,3.4,0.3L867.8,413.5z M860.9,416.8l4.2-2.8c-0.6-0.3-1.2-0.3-1.9-0.2c-0.7,0.1-1.3,0.4-1.9,0.7
				c-0.6,0.4-0.9,0.8-1.1,1.2C860.1,416.3,860.3,416.6,860.9,416.8z"/>
			<path class="st16" d="M875.6,411.5c-1,0.7-2.2,1.1-3.6,1.3c-1.4,0.2-2.6,0.1-3.6-0.4s-1.5-1.1-1.4-1.9s0.7-1.6,1.9-2.3
				c1.1-0.7,2.4-1.2,3.9-1.4l0.1,1.1c-1.1,0.2-2,0.5-2.7,0.9c-0.6,0.4-1,0.9-1.1,1.4s0.2,0.9,0.8,1.2s1.4,0.4,2.3,0.2
				c0.9-0.1,1.7-0.4,2.4-0.9s1.1-1,1.1-1.7l1.8-0.2C877.4,409.8,876.8,410.7,875.6,411.5z"/>
			<path class="st16" d="M878.1,405.6l3.7,1.6l-1.6,1l-9.4-4.2l1.6-1l3.9,1.7c-0.2-0.3-0.2-0.7,0-1.1s0.6-0.8,1.1-1.1
				c0.8-0.6,1.7-0.9,2.7-1s1.9,0,2.8,0.4l4.2,1.8l-1.6,1l-3.7-1.7c-1.2-0.6-2.4-0.5-3.6,0.3c-0.5,0.4-0.8,0.7-0.9,1.1
				C877.2,405,877.5,405.4,878.1,405.6z"/>
			<path class="st16" d="M888.2,402.1c-0.3-0.1-0.4-0.3-0.4-0.5s0.2-0.4,0.4-0.6c0.3-0.2,0.6-0.3,1-0.4s0.7,0,1,0.1s0.4,0.3,0.6,0.7
				l0.4,1.1l-0.8,0.5l-0.8-0.9C889.1,402.3,888.6,402.3,888.2,402.1z"/>
			<path class="st16" d="M898.8,396l-1.6,1.1l-8.9-4l2.6-1.7l8.5,0.5l-2.7-4.4l2.5-1.7l8.9,4l-1.6,1.1l-7-3.1l2.8,5l-0.9,0.6
				l-9.6-0.5L898.8,396z"/>
			<path class="st16" d="M910.5,388.1c-0.4,0-0.7,0-1-0.1s-0.4-0.3-0.4-0.5s0.2-0.4,0.5-0.6s0.6-0.3,1-0.4s0.7,0,1,0.1
				s0.4,0.3,0.4,0.5s-0.2,0.4-0.5,0.6S910.9,388,910.5,388.1z"/>
			<path class="st16" d="M910.1,380.2l7.5,3.3l-1.6,1.1l-7.5-3.3l-2.9,2l-1.4-0.6l7.5-5l1.4,0.6L910.1,380.2z"/>
			<path class="st16" d="M926.2,374.8l-5.8,3.8c0.5,0.2,1.2,0.2,1.9,0c0.8-0.2,1.4-0.4,2-0.8c0.9-0.6,1.4-1.2,1.3-1.8l1.8-0.2
				c0,0.9-0.7,1.7-2,2.6c-1,0.7-2.2,1.1-3.6,1.3c-1.4,0.2-2.6,0.1-3.6-0.4s-1.5-1.1-1.4-1.9s0.7-1.5,1.7-2.2s2.1-1.1,3.4-1.3
				c1.3-0.2,2.4-0.1,3.4,0.3L926.2,374.8z M919.3,378.1l4.2-2.8c-0.6-0.3-1.2-0.3-1.9-0.2c-0.7,0.1-1.3,0.4-1.9,0.7
				c-0.6,0.4-0.9,0.8-1.1,1.2S918.7,377.9,919.3,378.1z"/>
			<path class="st16" d="M934.1,372.8c-1,0.7-2.2,1.1-3.6,1.3c-1.4,0.2-2.6,0.1-3.6-0.4s-1.5-1.1-1.4-1.9s0.7-1.6,1.9-2.3
				c1.1-0.7,2.4-1.2,3.9-1.4l0.1,1.1c-1.1,0.2-2,0.5-2.7,0.9c-0.6,0.4-1,0.9-1.1,1.4s0.2,0.9,0.8,1.2s1.4,0.4,2.3,0.2
				c0.9-0.1,1.7-0.4,2.4-0.9s1.1-1,1.1-1.7l1.8-0.2C935.9,371.1,935.2,372,934.1,372.8z"/>
			<path class="st16" d="M936.6,366.9l3.7,1.6l-1.6,1l-9.4-4.2l1.6-1l3.9,1.7c-0.2-0.3-0.2-0.7,0-1.1s0.6-0.8,1.1-1.1
				c0.8-0.6,1.7-0.9,2.7-1s1.9,0,2.8,0.4l4.2,1.8l-1.6,1l-3.7-1.7c-1.2-0.6-2.4-0.5-3.6,0.3c-0.5,0.4-0.8,0.7-0.9,1.1
				C935.7,366.3,935.9,366.7,936.6,366.9z"/>
			<path class="st16" d="M946.6,363.4c-0.3-0.1-0.4-0.3-0.4-0.5s0.2-0.4,0.4-0.6c0.3-0.2,0.6-0.3,1-0.4s0.7,0,1,0.1s0.4,0.3,0.6,0.7
				l0.4,1.1l-0.8,0.5l-0.8-0.9C947.5,363.6,947,363.6,946.6,363.4z"/>
			<path class="st16" d="M833,456.5l-1.6,1.1l-8.9-4l2.6-1.7l8.5,0.5l-2.7-4.4l2.5-1.7l8.9,4l-1.6,1.1l-7-3.1l2.8,5l-0.9,0.6
				l-9.6-0.5L833,456.5z"/>
			<path class="st16" d="M849.2,445.8l-4.3,2.8l-8.9-4l3.8-2.5c0.7-0.4,1.3-0.8,1.9-1c0.6-0.3,1.2-0.4,1.7-0.4
				c0.9-0.1,1.6,0,2.2,0.2c0.7,0.3,1,0.7,0.8,1.2c-0.1,0.2-0.1,0.3-0.1,0.3c0,0.1-0.1,0.2-0.2,0.3c0.7-0.3,1.4-0.6,2.2-0.6
				c0.7-0.1,1.4,0,1.9,0.3c0.6,0.3,0.9,0.7,1,1.2C851.2,444.1,850.6,444.9,849.2,445.8z M841.4,445.2l2.1-1.4
				c1.2-0.8,1.4-1.3,0.7-1.7c-0.4-0.2-0.9-0.2-1.3-0.1c-0.5,0.1-1,0.4-1.6,0.8l-2.1,1.4L841.4,445.2z M845.2,446.9l2.6-1.7
				c0.6-0.4,1-0.7,1.1-1s0-0.5-0.5-0.8c-0.8-0.4-1.9-0.1-3.3,0.8l-2.4,1.6L845.2,446.9z"/>
			<path class="st16" d="M854,440.3l1.1,1.5l-1.8,1.2l-4.6-6.8l1.8-1.2l13.2,1.1l-1.8,1.2l-3-0.3L854,440.3z M856.8,437l-5.4-0.5
				l1.9,2.8L856.8,437z"/>
			<path class="st16" d="M863.7,435.2c-0.3-0.1-0.4-0.3-0.4-0.5s0.2-0.4,0.4-0.6s0.6-0.3,1-0.4s0.7,0,1,0.1s0.4,0.3,0.6,0.7l0.4,1.1
				l-0.8,0.5l-0.8-0.9C864.6,435.4,864.1,435.4,863.7,435.2z"/>
			<path class="st16" d="M874.3,429.1l-1.6,1.1l-8.9-4l2.6-1.7l8.5,0.5l-2.7-4.4l2.5-1.7l8.9,4L882,424l-7-3.1l2.8,5l-0.9,0.6
				l-9.6-0.5L874.3,429.1z"/>
			<path class="st16" d="M889.4,417.6c0.6-0.4,1-0.7,1.2-1.1c0.2-0.3,0.4-0.8,0.4-1.2l2.1-0.3c0,1.1-0.7,2.2-2.2,3.2s-3.1,1.6-5,1.8
				c-1.8,0.3-3.4,0.1-4.7-0.5s-1.9-1.4-1.8-2.5c0.1-1,0.9-2.1,2.4-3.1s3.3-1.6,5.3-1.8v1.2c-0.9,0.1-1.6,0.3-2.2,0.5
				c-0.6,0.2-1.1,0.5-1.7,0.9c-1,0.7-1.5,1.3-1.6,2s0.3,1.3,1.2,1.7c0.9,0.4,2,0.5,3.3,0.3C887.4,418.6,888.5,418.2,889.4,417.6z"/>
			<path class="st16" d="M895.9,412.6l1.1,1.5l-1.8,1.2l-4.6-6.8l1.8-1.2l13.2,1.1l-1.8,1.2l-3-0.3L895.9,412.6z M898.8,409.2
				l-5.4-0.5l1.9,2.8L898.8,409.2z"/>
		</g>
		<g>
			
				<rect x="788.4" y="407" transform="matrix(0.8336 -0.5523 0.5523 0.8336 -83.5574 538.658)" class="st35" width="128" height="2"/>
		</g>
		<g class="st36">
			<path d="M791.7,439.9l-10.8-4.8l2-1.3l9.1,4l5.4-3.6l1.7,0.8L791.7,439.9z"/>
			<path d="M798.7,423.3l1.7,0.8l-6.3,4.2l2.9,1.3l5.7-3.7l1.6,0.7l-5.7,3.7l2.9,1.3l6.5-4.3l1.7,0.8l-8.5,5.6l-10.8-4.8
				L798.7,423.3z"/>
			<path d="M817.7,422.7l-2.2,1.5l-15.6-1.7l2.2-1.5l11.7,1.2l-4.5-6l2.2-1.5L817.7,422.7z"/>
			<path d="M821.6,408.2l1.7,0.8l-6.3,4.2l2.9,1.3l5.7-3.7l1.6,0.7l-5.7,3.7l2.9,1.3l6.5-4.3l1.7,0.8l-8.5,5.6l-10.8-4.8
				L821.6,408.2z"/>
			<path d="M835.2,411.2l-10.8-4.8l2-1.3l9.1,4l5.4-3.6l1.7,0.8L835.2,411.2z"/>
			<path d="M845.1,400.4l-1.6-0.7l5.6-3.7l1.6,0.7L845.1,400.4z"/>
			<path d="M860,387.4c-0.1-0.4-0.3-0.7-0.8-0.9c-0.4-0.2-1-0.2-1.6-0.1c-0.7,0.1-1.3,0.3-1.8,0.7c-1,0.6-1.3,1.4-1.1,2.2l-2.5,0.7
				c-0.2-0.7-0.2-1.3,0.1-1.8c0.3-0.6,0.9-1.2,1.9-1.8c1-0.7,2.1-1.1,3.5-1.3c1.3-0.2,2.5-0.1,3.5,0.3c0.6,0.2,0.9,0.6,1.1,1
				c0.2,0.4,0.3,1.1,0.2,2l-0.2,3l5.4-3.5l1.7,0.8l-8.1,5.3l-1.5-0.7l0.3-3.8C860.1,388.4,860.1,387.8,860,387.4z"/>
		</g>
	</g>
</g>
<g>
	<g class="st38">
		<polygon class="st39" points="689.9,127.5 708.2,139.9 644.3,181.4 695.5,215.8 754.5,177.5 772.6,189.6 713.6,228 784.9,276 
			790.2,283.4 755.9,291.3 649.6,221.9 605.5,182 		"/>
	</g>
	<path class="st40" d="M553.9,231.9c16.7-0.6,33.5,4.2,47.3,13.5c14.2,9.6,21.6,20,21.9,30.9c0.8,14.4-10.1,29.7-30.6,43
		c-5.3,3.4-11,6.9-16.8,9.3l63,42.4l4.4,6.9l-25.8,7l-157-105.6l0.4-0.4c10-9.2,22-18.3,35.7-27.2
		C516.1,238.9,535.4,232.2,553.9,231.9z M575.3,307.1c24.5-15.9,26.5-33.1,5.5-47.3c-19.5-13.1-43.1-12-66.4,3.1
		c-7.7,5-14,9.8-16.9,12.9l60.3,40.6C562.8,314.6,568.5,311.5,575.3,307.1"/>
	<g class="st38">
		<polygon class="st39" points="406.2,312.4 563.6,420.2 568.7,427.5 542.4,438 509.8,418.7 383.4,327.1 		"/>
	</g>
	<g class="st38">
		<path class="st39" d="M328.8,361.6l152.8,111.3l4.5,7.3l-25.5,14.9l-49.2-7L330.3,465c-33.2-5.5-58.7-10.7-80.1-16
			c20.4,12.3,39.5,24.5,65.3,41.9l68,45.8l6,6.8l-33.4,11.4L190,447.7l40.4-22l127.1,23.5c28.3,4.6,53.4,9.7,76.5,15.6
			c-22.8-13-42.6-25.8-65-40.9l-66.6-44.8L328.8,361.6z"/>
	</g>
	<g>
		<polygon class="st41" points="673.4,116 735.3,75.9 733.4,132.7 671.6,172.9 		"/>
		<g>
			<path d="M734.2,77.7l-1.8,54.4L672.6,171l1.8-54.4L734.2,77.7 M736.4,74L736.4,74L736.4,74z M736.4,74l-63.9,41.5l-1.9,59.3
				l63.9-41.5L736.4,74L736.4,74z"/>
		</g>
	</g>
	<g>
		<polygon class="st41" points="742.7,162.6 799.6,125.6 797.8,182.5 740.8,219.5 		"/>
		<g>
			<path d="M798.6,127.5l-1.8,54.4l-54.9,35.7l1.8-54.4L798.6,127.5 M800.7,123.7L800.7,123.7L800.7,123.7z M800.7,123.7l-59,38.3
				l-1.9,59.3l59-38.3L800.7,123.7L800.7,123.7z"/>
		</g>
	</g>
	<g>
		<polygon class="st41" points="792.6,224.5 811.9,212 810.1,268.8 790.7,281.4 		"/>
		<g>
			<path d="M810.9,213.8l-1.8,54.4l-17.3,11.2l1.8-54.4L810.9,213.8 M813,210.1L813,210.1L813,210.1z M813,210.1L791.6,224
				l-1.9,59.3l21.4-13.9L813,210.1L813,210.1z"/>
		</g>
	</g>
	<g>
		<g>
			<polygon class="st42" points="631.3,176.1 633.2,117.9 791.1,224.2 789.2,282.4 			"/>
			<path d="M633.7,118.9l156.9,105.6l-1.9,57L631.8,175.8L633.7,118.9 M632.8,117l-1.9,59.3l158.8,106.9l1.9-59.3L632.8,117
				L632.8,117z"/>
		</g>
	</g>
	<g>
		<g>
			<path class="st43" d="M634.6,117L718,62.8L734.5,74l-62.6,40.7c-0.3,0.2-0.5,0.5-0.5,0.8s0.2,0.7,0.4,0.8l51.1,34.4
				c0.2,0.1,0.4,0.2,0.6,0.2c0.2,0,0.4-0.1,0.5-0.2l58.5-38l16.3,11L741,161.2c-0.3,0.2-0.5,0.5-0.5,0.8s0.2,0.7,0.4,0.8L811,210
				l-19.6,12.7L634.6,117z"/>
			<path d="M718,64l14.7,9.9l-61.4,39.8c-0.6,0.4-0.9,1-0.9,1.7s0.3,1.3,0.9,1.7l51.1,34.4c0.3,0.2,0.7,0.3,1.1,0.3
				c0.4,0,0.8-0.1,1.1-0.3l57.9-37.6l14.5,9.7l-56.5,36.7c-0.6,0.4-0.9,1-0.9,1.7s0.3,1.3,0.9,1.7l68.8,46.3l-17.7,11.5L636.4,117
				L718,64 M718,61.6L632.8,117l158.8,107l21.4-13.9l-71.3-48l59-38.3l-18.1-12.2l-59,38.3l-51.1-34.4L736.4,74L718,61.6L718,61.6z"
				/>
		</g>
	</g>
	<g>
		<path class="st41" d="M526.5,210.5c3-3.1,9.1-7.7,16.4-12.5c0.9-0.6,1.8-1.1,2.7-1.7l0.8-0.5c0.7-0.4,1.4-0.8,2.1-1.2l0.7-0.4
			c0.9-0.5,1.8-0.9,2.6-1.4l0.5-0.2c0.7-0.4,1.5-0.7,2.2-1c0.3-0.1,0.5-0.2,0.8-0.3c0.7-0.3,1.5-0.6,2.2-0.9l0.5-0.2
			c0.9-0.3,1.8-0.7,2.6-1l0.7-0.2c0.7-0.2,1.4-0.4,2-0.6l0.7-0.2c0.9-0.2,1.7-0.5,2.6-0.7c0.6-0.2,1.3-0.3,1.9-0.4l0.6-0.1
			c0.5-0.1,0.9-0.2,1.4-0.2l0.6-0.1c0.5-0.1,0.9-0.1,1.4-0.2l0.6-0.1l0.6-0.1c0.5-0.1,1.1-0.1,1.6-0.2c0.2,0,0.8-0.1,0.8-0.1
			c0.5,0,1-0.1,1.5-0.1h0.5h1.6c0.3,0,0.6,0,1,0s0.8,0,1.2,0h0.6h0.3c0.4,0,0.7,0.1,1.1,0.1h0.2c0.3,0,0.5,0,0.8,0.1
			c0.3,0,0.7,0.1,1,0.1c0,0,0.7,0.1,0.8,0.1h0.2c0.5,0.1,1,0.2,1.5,0.3l0.6,0.1c0.7,0.1,1.4,0.3,2.1,0.5l0.2,0.1
			c0.8,0.2,1.6,0.4,2.3,0.6l0.7,0.2c0.7,0.2,1.4,0.5,2.2,0.7l0.3,0.1c0.9,0.3,1.7,0.7,2.6,1.1l0.6,0.3c0.9,0.4,1.7,0.8,2.4,1.1
			l0.1,0.1c0.8,0.4,1.6,0.9,2.5,1.4l0.6,0.4c0.9,0.6,1.7,1.1,2.5,1.6c9.5,6.4,14.2,13.4,14,20.7l-1.7,51c-2.2-4.9-6.6-9.6-13.1-14
			c-0.8-0.5-1.6-1-2.5-1.6l-0.6-0.4c-1-0.6-1.8-1-2.6-1.4l-0.1-0.1c-0.8-0.4-1.6-0.8-2.5-1.2l-0.6-0.3c-1-0.4-1.8-0.8-2.7-1.1
			l-0.3-0.1c-0.7-0.3-1.5-0.5-2.2-0.8c-0.2-0.1-0.5-0.1-0.7-0.2c-0.8-0.2-1.6-0.5-2.4-0.7l-0.2-0.1c-0.7-0.2-1.5-0.3-2.2-0.5
			l-0.6-0.1c-0.5-0.1-1.1-0.2-1.6-0.3c-0.3,0-1-0.1-1-0.1c-0.4-0.1-0.8-0.1-1.2-0.1c-0.3,0-0.6-0.1-0.8-0.1h-0.2
			c-0.4,0-0.8-0.1-1.2-0.1c-0.3,0-0.7,0-1-0.1c-0.4,0-0.8,0-1.2,0c-0.3,0-0.7,0-1,0c0,0-0.9,0-1.2,0s-0.6,0-0.9,0
			c-0.5,0-1,0-1.5,0.1c-0.3,0-0.6,0-0.9,0.1c-0.6,0-1.1,0.1-1.7,0.2c0,0-0.6,0.1-0.7,0.1l-0.5,0.1c-0.5,0.1-1,0.1-1.5,0.2l-0.7,0.1
			c-0.5,0.1-0.9,0.2-1.4,0.3l-0.6,0.1c-0.7,0.1-1.3,0.3-2,0.4c-0.9,0.2-1.8,0.5-2.7,0.7l-0.8,0.2c-0.7,0.2-1.4,0.4-2.1,0.7l-0.7,0.2
			c-0.9,0.3-1.8,0.6-2.7,1l-0.5,0.2c-0.8,0.3-1.5,0.6-2.3,0.9l-0.8,0.4c-0.8,0.3-1.5,0.7-2.2,1.1l-0.5,0.2c-0.9,0.4-1.8,0.9-2.7,1.4
			l-0.7,0.4c-0.7,0.4-1.4,0.8-2.1,1.2l-0.8,0.5c-0.9,0.5-1.8,1.1-2.7,1.7c-6.5,4.2-11.9,8.2-15.2,11.3L526.5,210.5z"/>
		<g>
			<path d="M579.5,186.9h0.3c0.3,0,0.6,0,0.9,0c0.4,0,0.8,0,1.1,0c0.1,0,0.2,0,0.3,0s0.2,0,0.3,0h0.1h0.2c0.4,0,0.7,0.1,1.1,0.1h0.1
				c0.3,0,0.5,0,0.8,0.1c0.4,0,0.7,0.1,1.1,0.1h0.3c0.1,0,0.2,0,0.4,0h0.1h0.2c0.5,0.1,1,0.2,1.5,0.3h0.3c0.1,0,0.2,0,0.3,0.1
				c0.7,0.1,1.4,0.3,2.1,0.5l0,0c0.1,0,0.1,0,0.2,0c0.7,0.2,1.5,0.4,2.3,0.6c0.2,0.1,0.4,0.1,0.7,0.2c0.7,0.2,1.5,0.5,2.1,0.7
				c0.1,0,0.1,0,0.2,0.1l0,0h0.1c0.8,0.3,1.6,0.6,2.5,1c0.2,0.1,0.4,0.2,0.6,0.3c0.9,0.4,1.6,0.8,2.3,1.1l0.2,0.1
				c0.7,0.4,1.5,0.8,2.4,1.3c0.2,0.1,0.4,0.2,0.6,0.3c0.9,0.6,1.7,1,2.4,1.5c9.2,6.2,13.8,12.9,13.5,19.8l-1.6,47.3
				c-2.6-3.9-6.5-7.6-11.7-11.2c-0.8-0.5-1.6-1-2.6-1.6c-0.2-0.1-0.4-0.3-0.6-0.4c-1-0.6-1.8-1-2.6-1.4l-0.2-0.1
				c-0.8-0.4-1.6-0.8-2.5-1.2c-0.2-0.1-0.4-0.2-0.6-0.3c-1-0.4-1.9-0.8-2.7-1.1c-0.1,0-0.2-0.1-0.2-0.1h-0.1
				c-0.7-0.3-1.5-0.5-2.3-0.8c-0.2-0.1-0.5-0.1-0.7-0.2c-0.9-0.3-1.7-0.5-2.5-0.7H590c-0.7-0.2-1.5-0.3-2.3-0.5
				c-0.1,0-0.3-0.1-0.4-0.1h-0.2c-0.5-0.1-1.1-0.2-1.6-0.3c-0.3,0-0.5-0.1-0.8-0.1h-0.2c-0.4,0-0.8-0.1-1.1-0.1s-0.6-0.1-0.9-0.1
				h-0.1c-0.4,0-0.8-0.1-1.2-0.1c-0.3,0-0.6,0-0.9,0h-0.1c-0.4,0-0.8,0-1.2,0c-0.3,0-0.7,0-1,0h-0.3c-0.3,0-0.6,0-0.9,0
				c-0.3,0-0.6,0-1,0c-0.5,0-1,0-1.6,0.1H574c-0.2,0-0.5,0-0.7,0c-0.6,0-1.2,0.1-1.7,0.2h-0.3c-0.2,0-0.3,0-0.5,0.1
				c-0.1,0-0.2,0-0.4,0h-0.2c-0.5,0.1-1,0.1-1.5,0.2c-0.2,0-0.5,0.1-0.7,0.1c-0.5,0.1-1,0.2-1.4,0.3h-0.2c-0.1,0-0.3,0.1-0.4,0.1
				c-0.7,0.2-1.4,0.3-2,0.4c-0.8,0.2-1.7,0.4-2.7,0.7c-0.2,0.1-0.4,0.1-0.6,0.2h-0.2c-0.7,0.2-1.4,0.4-2.1,0.7l-0.2,0.1
				c-0.2,0.1-0.3,0.1-0.5,0.2c-0.9,0.3-1.9,0.7-2.7,1c-0.1,0-0.2,0.1-0.3,0.1l-0.2,0.1c-0.8,0.3-1.5,0.6-2.3,1
				c-0.3,0.1-0.5,0.2-0.8,0.4c-0.8,0.3-1.5,0.7-2.3,1.1l-0.2,0.1c-0.1,0.1-0.2,0.1-0.3,0.2c-0.9,0.4-1.8,0.9-2.7,1.4
				c-0.2,0.1-0.3,0.2-0.5,0.3l-0.2,0.1c-0.7,0.4-1.4,0.8-2.1,1.2l-0.1,0.1c-0.2,0.1-0.4,0.3-0.6,0.4c-1,0.6-1.9,1.2-2.8,1.7
				c-5.5,3.6-10.2,7-13.6,9.9l1.8-53.7c3-3,8.9-7.5,16-12.1c0.8-0.5,1.6-1,2.6-1.6c0.2-0.1,0.4-0.2,0.6-0.4l0.1-0.1
				c0.7-0.4,1.4-0.8,2-1.2l0.3-0.1c0.1-0.1,0.3-0.2,0.4-0.2c0.9-0.5,1.8-0.9,2.6-1.4l0.3-0.1l0.2-0.1c0.7-0.3,1.4-0.7,2.2-1
				c0.3-0.1,0.5-0.2,0.8-0.3c0.7-0.3,1.5-0.6,2.2-0.9l0.2-0.1l0.2-0.1c0.8-0.3,1.7-0.6,2.6-0.9c0.1,0,0.3-0.1,0.4-0.1l0.3-0.1
				c0.7-0.2,1.3-0.4,2-0.6l0.2-0.1c0.2-0.1,0.4-0.1,0.6-0.2c1-0.3,1.8-0.5,2.6-0.7l0,0c0.6-0.1,1.2-0.3,1.9-0.4c0.1,0,0.3,0,0.4-0.1
				h0.2c0.4-0.1,0.9-0.2,1.3-0.2c0.2,0,0.4-0.1,0.6-0.1c0.5-0.1,0.9-0.1,1.4-0.2h0.2h0.3h0.1h0.1c0.1,0,0.2,0,0.2,0
				c0.1,0,0.2,0,0.3,0c0.5-0.1,1.1-0.1,1.6-0.2c0.2,0,0.4,0,0.7,0h0.2c0.5,0,1-0.1,1.4-0.1c0.1,0,0.2,0,0.3,0s0.1,0,0.2,0h0.1h0.1
				h0.1h0.2C579,186.9,579.3,186.9,579.5,186.9 M579.5,184.9c-0.3,0-0.6,0-0.9,0h-0.1c-0.1,0-0.1,0-0.2,0c-0.1,0-0.1,0-0.2,0
				c-0.2,0-0.3,0-0.5,0c-0.5,0-1,0-1.5,0.1c-0.3,0-0.6,0-0.9,0.1c-0.6,0-1.1,0.1-1.7,0.2c-0.2,0-0.4,0-0.6,0.1c-0.1,0-0.1,0-0.2,0
				c-0.2,0-0.4,0-0.5,0.1c-0.5,0.1-1,0.1-1.4,0.2c-0.2,0-0.4,0.1-0.7,0.1c-0.5,0.1-0.9,0.2-1.4,0.3c-0.2,0-0.4,0.1-0.6,0.1
				c-0.6,0.1-1.3,0.3-1.9,0.4l0,0c-0.9,0.2-1.8,0.4-2.7,0.7c-0.3,0.1-0.5,0.1-0.8,0.2c-0.7,0.2-1.4,0.4-2.1,0.7
				c-0.2,0.1-0.5,0.1-0.7,0.2c-0.9,0.3-1.8,0.6-2.7,1c-0.2,0.1-0.3,0.1-0.5,0.2c-0.7,0.3-1.5,0.6-2.2,0.9c-0.3,0.1-0.5,0.2-0.8,0.4
				c-0.7,0.3-1.5,0.7-2.2,1c-0.2,0.1-0.3,0.2-0.5,0.2c-0.9,0.4-1.8,0.9-2.7,1.4c-0.2,0.1-0.5,0.3-0.7,0.4c-0.7,0.4-1.4,0.8-2.1,1.2
				c-0.3,0.2-0.5,0.3-0.8,0.5c-0.9,0.5-1.8,1.1-2.7,1.7c-7.7,5-14,9.8-16.9,12.9l-1.9,59.3c2.9-3.1,9.2-7.9,16.9-12.9
				c0.9-0.6,1.8-1.1,2.7-1.7c0.3-0.2,0.5-0.3,0.8-0.5c0.7-0.4,1.4-0.8,2.1-1.2c0.2-0.1,0.5-0.3,0.7-0.4c0.9-0.5,1.8-0.9,2.7-1.4
				c0.2-0.1,0.3-0.2,0.5-0.2c0.7-0.4,1.5-0.7,2.2-1c0.3-0.1,0.5-0.2,0.8-0.4c0.7-0.3,1.5-0.6,2.2-0.9c0.2-0.1,0.3-0.1,0.5-0.2
				c0.9-0.3,1.8-0.7,2.7-1c0.2-0.1,0.5-0.2,0.7-0.2c0.7-0.2,1.4-0.4,2.1-0.7c0.3-0.1,0.5-0.2,0.8-0.2c0.9-0.3,1.8-0.5,2.7-0.7
				c0.7-0.2,1.3-0.3,2-0.4c0.2,0,0.4-0.1,0.6-0.1c0.5-0.1,0.9-0.2,1.4-0.3c0.2,0,0.4-0.1,0.7-0.1c0.5-0.1,1-0.1,1.4-0.2
				c0.2,0,0.4,0,0.5-0.1c0.2,0,0.5-0.1,0.7-0.1c0.6-0.1,1.1-0.1,1.7-0.2c0.3,0,0.6,0,0.9-0.1c0.5,0,1-0.1,1.5-0.1c0.3,0,0.6,0,0.9,0
				c0.3,0,0.6,0,0.9,0c0.1,0,0.2,0,0.3,0c0.3,0,0.7,0,1,0c0.4,0,0.8,0,1.2,0c0.3,0,0.6,0,1,0.1c0.4,0,0.8,0.1,1.1,0.1s0.7,0.1,1,0.1
				c0.4,0,0.8,0.1,1.1,0.1s0.6,0.1,0.9,0.1c0.5,0.1,1,0.2,1.6,0.3c0.2,0,0.4,0.1,0.6,0.1c0.7,0.1,1.5,0.3,2.2,0.5
				c0.1,0,0.1,0,0.2,0.1c0.8,0.2,1.6,0.4,2.4,0.6c0.2,0.1,0.5,0.1,0.7,0.2c0.7,0.2,1.5,0.5,2.2,0.7c0.1,0,0.2,0.1,0.3,0.1
				c0.9,0.3,1.7,0.7,2.6,1.1c0.2,0.1,0.4,0.2,0.6,0.3c0.8,0.4,1.6,0.8,2.4,1.2c0.1,0,0.1,0.1,0.2,0.1c0.9,0.4,1.7,0.9,2.5,1.4
				c0.2,0.1,0.4,0.2,0.6,0.4c0.8,0.5,1.7,1,2.5,1.6c9.9,6.7,14.7,14,14.4,21.6l1.9-59.3c0.2-7.6-4.5-14.9-14.4-21.6
				c-0.8-0.6-1.7-1.1-2.5-1.6c-0.2-0.1-0.4-0.2-0.6-0.4c-0.8-0.5-1.7-1-2.5-1.4c-0.1,0-0.1-0.1-0.2-0.1c-0.8-0.4-1.6-0.8-2.4-1.2
				c-0.2-0.1-0.4-0.2-0.6-0.3c-0.9-0.4-1.7-0.7-2.6-1.1c0,0,0,0-0.1,0s-0.2-0.1-0.3-0.1c-0.7-0.3-1.5-0.5-2.2-0.7
				c-0.2-0.1-0.5-0.1-0.7-0.2c-0.8-0.2-1.6-0.5-2.4-0.6c-0.1,0-0.1,0-0.2,0l0,0c-0.7-0.2-1.4-0.3-2.2-0.5c-0.2,0-0.4-0.1-0.6-0.1
				c-0.5-0.1-1-0.2-1.6-0.3c-0.1,0-0.2,0-0.2,0c-0.2,0-0.5-0.1-0.7-0.1c-0.4,0-0.8-0.1-1.1-0.1s-0.6-0.1-1-0.1s-0.8-0.1-1.1-0.1
				c-0.1,0-0.2,0-0.3,0c-0.2,0-0.4,0-0.6,0c-0.4,0-0.8,0-1.2,0c-0.3,0-0.7,0-1,0C579.7,184.9,579.6,184.9,579.5,184.9L579.5,184.9z"
				/>
		</g>
	</g>
	<g>
		<path class="st41" d="M604.7,263.4c5.8-2.4,11.3-5.8,16.4-9.1c1-0.7,2-1.3,3-2l0.4-0.3c0.9-0.6,1.8-1.3,2.7-1.9l0.5-0.3
			c0.9-0.6,1.7-1.3,2.5-1.9l0.4-0.3c0.8-0.7,1.6-1.3,2.4-2l0.3-0.2c0.8-0.7,1.6-1.4,2.3-2l0.1-0.1c0.7-0.7,1.5-1.4,2.2-2.1l0.3-0.3
			c0.7-0.7,1.3-1.3,1.9-2l0.3-0.4c0.6-0.7,1.2-1.3,1.8-2l0.3-0.3c0.5-0.7,1.1-1.3,1.6-2s1-1.4,1.5-2.1l0.2-0.3
			c0.4-0.7,0.9-1.3,1.3-2l0.2-0.4c0.4-0.7,0.8-1.3,1.1-2l0.2-0.4c0.2-0.4,0.4-0.8,0.6-1.1l0.2-0.5c0.2-0.4,0.3-0.7,0.5-1.1
			c0,0,0.2-0.6,0.3-0.6l-1.6,48.5c0,0.5-0.1,1.1-0.1,1.6v0.1v0.4c0,0.2-0.1,0.5-0.1,0.7s-0.1,0.4-0.1,0.6s-0.1,0.5-0.1,0.7
			s-0.1,0.4-0.1,0.6c-0.1,0.2-0.1,0.5-0.2,0.7l-0.1,0.6c-0.1,0.3-0.1,0.5-0.2,0.8l-0.1,0.4v0.1c-0.1,0.5-0.3,1-0.5,1.5l-0.1,0.2
			c-0.2,0.4-0.3,0.9-0.5,1.3l-0.2,0.5c-0.1,0.3-0.3,0.7-0.4,1l-0.2,0.5c-0.2,0.4-0.4,0.7-0.5,1.1l-0.1,0.3c-0.4,0.7-0.7,1.3-1.1,2
			l-0.2,0.4c-0.4,0.6-0.8,1.3-1.2,1.9l-0.2,0.3c-0.4,0.6-0.9,1.3-1.4,1.9c-0.5,0.7-1.1,1.4-1.6,2l-0.2,0.2l-0.1,0.1
			c-0.5,0.7-1.1,1.3-1.7,2L637,297c-0.6,0.7-1.2,1.3-1.9,2l-0.3,0.3c-0.7,0.7-1.4,1.4-2.1,2l-0.1,0.1c-0.7,0.7-1.5,1.3-2.2,2
			l-0.2,0.2c-0.8,0.7-1.5,1.3-2.3,1.9l-0.4,0.3c-0.8,0.6-1.6,1.3-2.4,1.9l-0.5,0.3c-0.9,0.6-1.7,1.3-2.6,1.9l-0.4,0.2
			c-0.9,0.7-1.9,1.3-2.9,2c-4.8,3.1-9.9,6.3-15.2,8.6L604.7,263.4z"/>
		<g>
			<path d="M648.7,228.3l-1.4,43.6c0,0.4,0,0.9-0.1,1.5c0,0.1,0,0.1,0,0.2v0.1v0.2c0,0.2-0.1,0.5-0.1,0.7s-0.1,0.4-0.1,0.6
				s-0.1,0.5-0.1,0.7s-0.1,0.4-0.1,0.6c-0.1,0.2-0.1,0.5-0.2,0.7v0.1c0,0.1-0.1,0.3-0.1,0.4c-0.1,0.2-0.1,0.5-0.2,0.7l-0.1,0.2
				c0,0.1,0,0.1,0,0.2v0.1c-0.2,0.5-0.3,1-0.5,1.4v0.1c-0.2,0.4-0.3,0.8-0.5,1.3c0,0.1-0.1,0.2-0.1,0.3l-0.1,0.1
				c-0.1,0.3-0.3,0.7-0.4,1c-0.1,0.2-0.1,0.3-0.2,0.5c-0.2,0.4-0.3,0.7-0.5,1.1l-0.1,0.2v0.1c0,0,0,0.1-0.1,0.1
				c-0.3,0.6-0.6,1.2-1,1.9l-0.2,0.4c-0.4,0.6-0.8,1.3-1.2,1.8l-0.1,0.2l-0.1,0.1c-0.5,0.7-0.9,1.3-1.3,1.9l-0.1,0.1
				c-0.4,0.6-0.9,1.2-1.5,1.9l-0.1,0.1l-0.1,0.1l-0.1,0.1c-0.5,0.6-1.1,1.3-1.7,1.9l-0.3,0.3c-0.6,0.7-1.2,1.3-1.8,1.9l-0.2,0.2
				l-0.1,0.1c-0.7,0.7-1.4,1.4-2.1,2l-0.1,0.1c-0.7,0.6-1.4,1.3-2.2,2l-0.1,0.1l-0.1,0.1c-0.7,0.6-1.5,1.2-2.3,1.9l-0.1,0.1
				l-0.3,0.2c-0.8,0.6-1.6,1.2-2.4,1.9l-0.4,0.3l-0.1,0.1c-0.9,0.7-1.7,1.3-2.6,1.9l-0.2,0.1l-0.2,0.1c-1,0.7-2,1.3-2.9,1.9
				c-4.3,2.8-8.9,5.6-13.6,7.9l1.8-54.9c5.6-2.4,11-5.7,16-9c0.9-0.6,1.9-1.3,3-2l0.1-0.1l0.2-0.2c0.9-0.6,1.8-1.2,2.7-1.9l0.1-0.1
				l0.4-0.3c0.9-0.6,1.7-1.3,2.5-1.9l0.3-0.2l0.1-0.1c0.9-0.7,1.7-1.4,2.4-2l0.2-0.1l0.1-0.1c0.8-0.7,1.6-1.4,2.3-2.1l0.1-0.1
				c0.7-0.7,1.4-1.3,2.2-2.1l0.1-0.1l0.2-0.2c0.6-0.6,1.3-1.3,1.9-2l0.3-0.4c0.6-0.7,1.2-1.4,1.8-2.1l0.2-0.2l0.1-0.1
				c0.6-0.8,1.1-1.4,1.6-2l0.1-0.1c0.5-0.6,0.9-1.3,1.4-2l0.1-0.1l0.1-0.2c0.4-0.6,0.9-1.3,1.3-2l0.2-0.4
				C648.2,229.3,648.4,228.8,648.7,228.3 M651.2,212.7L651.2,212.7L651.2,212.7z M651.2,212.7c0,0.5-0.1,1.1-0.1,1.6
				c0,0.2,0,0.4-0.1,0.5c0,0.3-0.1,0.5-0.1,0.8c0,0.2-0.1,0.4-0.1,0.6c0,0.3-0.1,0.5-0.1,0.8c0,0.2-0.1,0.4-0.1,0.6
				c-0.1,0.3-0.1,0.5-0.2,0.8c0,0.2-0.1,0.4-0.1,0.6c-0.1,0.3-0.1,0.5-0.2,0.8c-0.1,0.2-0.1,0.4-0.2,0.5c-0.2,0.5-0.3,1-0.5,1.5
				c0,0.1,0,0.1-0.1,0.2c-0.2,0.4-0.3,0.9-0.5,1.3c-0.1,0.2-0.1,0.3-0.2,0.5c-0.1,0.3-0.3,0.7-0.5,1c-0.1,0.2-0.2,0.3-0.2,0.5
				c-0.2,0.4-0.4,0.7-0.6,1.1c-0.1,0.1-0.1,0.3-0.2,0.4c-0.3,0.7-0.7,1.3-1.1,1.9c-0.1,0.1-0.1,0.3-0.2,0.4
				c-0.4,0.6-0.8,1.3-1.2,1.9c-0.1,0.1-0.1,0.2-0.2,0.3c-0.4,0.7-0.9,1.3-1.4,2c0,0,0,0-0.1,0.1c-0.5,0.7-1,1.3-1.6,2
				c-0.1,0.1-0.2,0.2-0.3,0.3c-0.6,0.7-1.1,1.3-1.7,2c-0.1,0.1-0.2,0.2-0.3,0.4c-0.6,0.7-1.2,1.3-1.9,2c-0.1,0.1-0.2,0.2-0.3,0.3
				c-0.7,0.7-1.4,1.4-2.1,2.1l-0.1,0.1c-0.7,0.7-1.5,1.4-2.3,2c-0.1,0.1-0.2,0.1-0.3,0.2c-0.8,0.7-1.6,1.3-2.4,2
				c-0.1,0.1-0.3,0.2-0.4,0.3c-0.8,0.6-1.6,1.3-2.5,1.9c-0.2,0.1-0.3,0.2-0.5,0.3c-0.9,0.6-1.7,1.3-2.6,1.9
				c-0.1,0.1-0.2,0.2-0.4,0.2c-1,0.7-1.9,1.3-2.9,2c-5.3,3.4-11,6.9-16.8,9.3l-1.9,59.3c5.9-2.4,11.5-5.9,16.8-9.3
				c1-0.7,2-1.3,2.9-2c0.1-0.1,0.2-0.2,0.4-0.2c0.9-0.6,1.8-1.3,2.6-1.9c0.2-0.1,0.3-0.2,0.5-0.3c0.8-0.6,1.7-1.3,2.5-1.9
				c0.1-0.1,0.3-0.2,0.4-0.3c0.8-0.7,1.6-1.3,2.4-2c0.1-0.1,0.2-0.1,0.2-0.2c0.8-0.7,1.5-1.3,2.3-2l0.1-0.1c0.7-0.7,1.4-1.4,2.1-2.1
				c0.1-0.1,0.2-0.2,0.3-0.3c0.7-0.7,1.3-1.3,1.9-2c0.1-0.1,0.2-0.2,0.3-0.4c0.6-0.7,1.2-1.3,1.7-2l0.1-0.1c0.1-0.1,0.1-0.1,0.2-0.2
				c0.5-0.7,1.1-1.3,1.6-2c0,0,0,0,0.1-0.1c0.5-0.6,0.9-1.3,1.4-2c0.1-0.1,0.1-0.2,0.2-0.3c0.4-0.6,0.8-1.3,1.2-1.9
				c0.1-0.1,0.2-0.3,0.2-0.4c0.4-0.6,0.8-1.3,1.1-1.9V286c0.1-0.1,0.1-0.2,0.2-0.3c0.2-0.4,0.4-0.7,0.6-1.1c0.1-0.2,0.2-0.3,0.2-0.5
				c0.2-0.4,0.3-0.7,0.5-1.1c0.1-0.2,0.1-0.3,0.2-0.5c0.2-0.4,0.4-0.9,0.5-1.3c0-0.1,0-0.1,0.1-0.2c0.2-0.5,0.3-1,0.5-1.5v-0.1
				c0-0.1,0.1-0.3,0.1-0.4c0.1-0.3,0.1-0.5,0.2-0.8c0-0.2,0.1-0.4,0.1-0.6c0.1-0.3,0.1-0.5,0.2-0.8c0-0.2,0.1-0.4,0.1-0.6
				c0-0.3,0.1-0.5,0.1-0.8c0-0.2,0.1-0.4,0.1-0.6c0-0.3,0.1-0.5,0.1-0.8c0-0.1,0-0.2,0-0.3c0-0.1,0-0.1,0-0.2
				c0.1-0.5,0.1-1.1,0.1-1.6L651.2,212.7L651.2,212.7z"/>
		</g>
	</g>
	<g>
		<g>
			<polygon class="st42" points="487,272.4 488.9,214.3 644.8,319.2 642.9,377.4 			"/>
			<path d="M489.4,215.2l154.9,104.3l-1.9,57L487.5,272.2L489.4,215.2 M488.4,213.4l-1.9,59.3l156.9,105.6l1.9-59.3L488.4,213.4
				L488.4,213.4z"/>
		</g>
	</g>
	<g>
		<g>
			<polygon class="st41" points="646.3,319.5 665.6,307 663.7,363.9 644.4,376.4 			"/>
			<path d="M664.6,308.9l-1.8,54.4l-17.3,11.2l1.8-54.4L664.6,308.9 M666.7,305.1L645.3,319l-1.9,59.3l21.4-13.9L666.7,305.1
				L666.7,305.1z"/>
		</g>
	</g>
	<g>
		<path class="st44" d="M582,166c16.7-0.6,33.5,4.2,47.3,13.5c14.2,9.6,21.6,20,21.9,30.9c0.8,14.4-10.1,29.7-30.6,43
			c-5.3,3.4-11,6.9-16.8,9.3l63,42.4L645.3,319L488.4,213.4l0.4-0.4c10-9.2,22-18.3,35.7-27.2C544.2,173,563.5,166.3,582,166z
			 M603.4,241.2c24.5-15.9,26.5-33.1,5.5-47.3c-19.5-13.1-43.1-12-66.4,3.1c-7.7,5-14,9.8-16.9,12.9l60.3,40.6
			C590.9,248.7,596.6,245.6,603.4,241.2"/>
	</g>
	<g>
		<polygon class="st41" points="567.8,370.5 587.1,357.9 585.3,414.8 565.9,427.4 		"/>
		<path d="M586.1,359.8l-1.8,54.4L567,425.5l1.8-54.4L586.1,359.8 M588.2,356L588.2,356L588.2,356z M588.2,356l-21.4,13.9l-1.9,59.3
			l21.4-13.9L588.2,356L588.2,356z"/>
	</g>
	<g>
		<g>
			<polygon class="st42" points="406.5,322.1 408.5,263.9 566.3,370.2 564.4,428.3 			"/>
			<path d="M408.9,264.8l156.9,105.6l-1.9,57L407.1,321.8L408.9,264.8 M408,263l-1.9,59.3l158.8,106.9l1.9-59.3L408,263L408,263z"/>
		</g>
	</g>
	<g>
		<g>
			<polygon class="st43" points="409.8,263 429.4,250.3 586.4,356 566.8,368.7 			"/>
			<path d="M429.3,251.5L584.6,356l-17.7,11.5L411.6,263L429.3,251.5 M429.4,249.1L408,263l158.8,106.9l21.4-13.9L429.4,249.1
				L429.4,249.1z"/>
		</g>
	</g>
	<g>
		<path class="st41" d="M459.3,456.5c-9-5.2-18-10.5-27.2-16.3c-10.6-6.6-21.8-13.9-36.3-23.7L329.7,372l1.9-57l65.1,43.8
			c22.3,15,41.8,27.6,64.5,40.6L459.3,456.5z"/>
		<g>
			<path d="M332.5,316.9l63.6,42.8c22.1,14.9,41.5,27.5,64.1,40.4l-1.8,54.8c-8.5-4.9-17-10-25.7-15.5
				c-10.6-6.6-21.7-13.9-36.2-23.7l-65.6-44.2L332.5,316.9 M330.7,313.2l-1.9,59.3l66.6,44.8c12.6,8.5,24.4,16.2,36.3,23.7
				c9.3,5.8,18.7,11.5,28.7,17.2l1.9-59.3c-22.8-13-42.6-25.8-65-40.9L330.7,313.2L330.7,313.2z"/>
		</g>
	</g>
	<g>
		<path class="st42" d="M356.5,458c-2-0.3-3.9-0.7-5.8-1l-5.7-1l-5.5-1l-5.4-1l-5.3-1l-5.3-1l-1.9-0.4l-4.9-0.9
			c-1.2-0.2-4.8-0.9-4.8-0.9c-1.6-0.3-3.1-0.6-4.6-0.9c0,0-3.3-0.7-4.5-0.9l-4.4-0.9l-4.3-0.9l-4.2-1l-4.1-1l-2.5-0.6l-3-0.7
			c-1.1-0.3-2.3-0.6-3.4-0.8l1.9-58.3c1,0.3,3.9,1,3.9,1s2.2,0.5,3.1,0.7l4.1,1l1.7,0.4l4.2,1l4.3,0.9l4.4,0.9
			c1.2,0.3,4.5,0.9,4.5,0.9c1.5,0.3,3.1,0.6,4.6,0.9c0,0,3.6,0.7,4.8,0.9l4.9,0.9l5.1,1l5.2,1l2.2,0.4l5.4,1l5.5,1l5.7,1
			c1.9,0.3,3.9,0.7,5.8,1l129.6,21.7l-1.9,58.3L356.5,458z"/>
		<g>
			<path d="M279.2,384.3c0.8,0.2,1.7,0.4,2.6,0.6l0.8,0.2l0.4,0.1c0.9,0.2,1.7,0.4,2.6,0.6l1.7,0.4c0.8,0.2,1.6,0.4,2.4,0.6l1.7,0.4
				c0.8,0.2,1.6,0.4,2.5,0.6l1.8,0.4c0.9,0.2,1.7,0.4,2.6,0.6l0.4,0.1l1.3,0.3c0.9,0.2,1.9,0.4,2.8,0.6l0.6,0.1l1,0.2
				c1.2,0.3,2.4,0.5,3.6,0.8l0.4,0.1l0.5,0.1c1.5,0.3,3.1,0.6,4.7,0.9l0.8,0.2l0.6,0.1c1.1,0.2,2.3,0.5,3.5,0.7l1.2,0.2l0.6,0.1
				c1,0.2,2.1,0.4,3.1,0.6l1.6,0.3l0.4,0.1c1,0.2,2,0.4,3,0.6l2.1,0.4c1,0.2,2,0.4,3.1,0.6l2.2,0.4c1.1,0.2,2.1,0.4,3.2,0.6h0.2
				l2.1,0.4c1.1,0.2,2.2,0.4,3.4,0.6l0.7,0.1l1.5,0.3c1.2,0.2,2.5,0.4,3.8,0.6l0.8,0.1l1.2,0.2c1.9,0.3,3.9,0.7,5.8,1l129.1,21.6
				l-1.9,57.3l-128.9-21.6c-2-0.3-3.9-0.7-5.8-1l-1.2-0.2l-0.8-0.1c-1.3-0.2-2.5-0.4-3.8-0.6l-1.5-0.3l-0.6-0.1
				c-1.1-0.2-2.3-0.4-3.4-0.6l-2.1-0.4h-0.2c-1.1-0.2-2.1-0.4-3.2-0.6l-2.2-0.4c-1-0.2-2.1-0.4-3.1-0.6l-2.1-0.4c-1-0.2-2-0.4-3-0.6
				l-0.5-0.1l-1.6-0.3c-1-0.2-2.1-0.4-3.1-0.6l-0.6-0.1l-1.2-0.2c-1.2-0.2-2.3-0.5-3.5-0.7l-0.6-0.1l-0.8-0.2
				c-1.6-0.3-3.1-0.6-4.6-0.9l-0.5-0.1l-0.4-0.1c-1.2-0.3-2.4-0.5-3.6-0.8l-1-0.2l-0.6-0.1c-0.9-0.2-1.9-0.4-2.8-0.6l-1.3-0.3
				l-0.5-0.1c-0.9-0.2-1.7-0.4-2.6-0.6l-1.8-0.4c-0.8-0.2-1.6-0.4-2.4-0.6l-1.7-0.4c-0.8-0.2-1.6-0.4-2.4-0.6l-1.7-0.4l-0.4-0.1
				l-0.4-0.1l-1.2-0.3l-0.6-0.1l-0.4-0.1l-0.8-0.2c-1-0.2-2-0.5-3-0.7L279.2,384.3 M278.3,383.1l-1.9,59.3c1.2,0.3,2.5,0.6,3.8,0.9
				c0.4,0.1,0.8,0.2,1.2,0.3c0.6,0.1,1.2,0.3,1.8,0.4c0.3,0.1,0.5,0.1,0.8,0.2c0.6,0.1,1.1,0.3,1.7,0.4c0.8,0.2,1.6,0.4,2.4,0.6
				c0.6,0.1,1.2,0.3,1.7,0.4c0.8,0.2,1.6,0.4,2.5,0.6c0.6,0.1,1.2,0.3,1.8,0.4c0.9,0.2,1.7,0.4,2.6,0.6c0.6,0.1,1.2,0.3,1.7,0.4
				c0.9,0.2,1.9,0.4,2.8,0.6c0.5,0.1,1.1,0.2,1.6,0.3c1.2,0.3,2.4,0.5,3.6,0.8c0.3,0.1,0.6,0.1,0.9,0.2c1.5,0.3,3.1,0.6,4.6,0.9
				c0.4,0.1,0.9,0.2,1.3,0.3c1.1,0.2,2.3,0.5,3.5,0.7c0.6,0.1,1.2,0.2,1.8,0.4c1,0.2,2.1,0.4,3.1,0.6c0.7,0.1,1.3,0.3,2,0.4
				c1,0.2,2,0.4,3,0.6c0.7,0.1,1.4,0.3,2.1,0.4c1,0.2,2,0.4,3.1,0.6c0.7,0.1,1.5,0.3,2.2,0.4c1.1,0.2,2.1,0.4,3.2,0.6
				c0.7,0.1,1.5,0.3,2.2,0.4c1.1,0.2,2.2,0.4,3.4,0.6c0.7,0.1,1.4,0.3,2.2,0.4c1.2,0.2,2.5,0.4,3.8,0.6c0.6,0.1,1.3,0.2,1.9,0.3
				c1.9,0.3,3.9,0.7,5.8,1l130,21.7l1.9-59.3l-130-21.7c-2-0.3-3.9-0.7-5.8-1c-0.6-0.1-1.3-0.2-1.9-0.3c-1.3-0.2-2.5-0.4-3.8-0.6
				c-0.7-0.1-1.5-0.3-2.2-0.4c-1.1-0.2-2.3-0.4-3.4-0.6c-0.8-0.1-1.5-0.3-2.2-0.4c-1.1-0.2-2.1-0.4-3.2-0.6
				c-0.7-0.1-1.5-0.3-2.2-0.4c-1-0.2-2.1-0.4-3.1-0.6c-0.7-0.1-1.4-0.3-2.1-0.4c-1-0.2-2-0.4-3-0.6c-0.7-0.1-1.4-0.3-2-0.4
				c-1-0.2-2.1-0.4-3.1-0.6c-0.6-0.1-1.2-0.2-1.8-0.4c-1.2-0.2-2.3-0.5-3.5-0.7c-0.4-0.1-0.9-0.2-1.3-0.3c-1.6-0.3-3.1-0.6-4.6-0.9
				c-0.3-0.1-0.6-0.1-0.9-0.2c-1.2-0.2-2.4-0.5-3.6-0.7c-0.5-0.1-1.1-0.2-1.6-0.3c-0.9-0.2-1.9-0.4-2.8-0.6
				c-0.6-0.1-1.2-0.3-1.7-0.4c-0.9-0.2-1.7-0.4-2.6-0.6c-0.6-0.1-1.2-0.3-1.8-0.4c-0.8-0.2-1.6-0.4-2.5-0.6
				c-0.6-0.1-1.2-0.3-1.7-0.4c-0.8-0.2-1.6-0.4-2.4-0.6c-0.6-0.1-1.1-0.3-1.7-0.4c-0.9-0.2-1.7-0.4-2.6-0.6
				c-0.4-0.1-0.8-0.2-1.2-0.3C280.8,383.7,279.5,383.4,278.3,383.1L278.3,383.1z"/>
		</g>
	</g>
	<g>
		<polygon class="st41" points="489.4,421.4 508.7,408.9 506.8,465.8 487.5,478.3 		"/>
		<g>
			<path d="M507.6,410.8l-1.8,54.4l-17.2,11.2l1.8-54.4L507.6,410.8 M509.7,407L509.7,407L509.7,407z M509.7,407l-21.3,13.9
				l-1.9,59.3l21.3-13.9L509.7,407L509.7,407z"/>
		</g>
	</g>
	<g>
		<g>
			<polygon class="st42" points="231.1,436 233,377.9 390.8,484.1 388.9,542.3 			"/>
			<path d="M233.4,378.8l156.9,105.6l-1.9,57L231.6,435.8L233.4,378.8 M232.5,377l-1.9,59.3l158.8,106.9l1.9-59.3L232.5,377
				L232.5,377z"/>
		</g>
	</g>
	<g>
		<g>
			<polygon class="st41" points="392.3,484.4 410.5,472.6 408.6,529.5 390.5,541.3 			"/>
			<path d="M409.4,474.5l-1.8,54.4l-16.1,10.5l1.8-54.4L409.4,474.5 M411.6,470.8l-20.2,13.1l-1.9,59.3l20.2-13.1L411.6,470.8
				L411.6,470.8z"/>
		</g>
	</g>
	<g>
		<g>
			<path class="st43" d="M234.3,377l21.4-13.9l129.8,21.2c28.3,4.6,53.3,9.7,76.4,15.6c0.1,0,0.2,0,0.2,0c0.4,0,0.8-0.2,0.9-0.6
				c0.2-0.5,0-1-0.4-1.2c-22.9-13.1-42.5-25.8-64.9-40.9l-65.3-44l18.4-11.9l157,105.7l-19.7,12.8l-129.6-21.7
				c-33.2-5.5-58.6-10.6-80.1-16c-0.1,0-0.2,0-0.2,0c-0.4,0-0.8,0.2-0.9,0.6c-0.2,0.5,0,1,0.4,1.2c20.4,12.3,39.3,24.4,65.3,41.9
				l66.7,44.9l-18.4,11.9L234.3,377z"/>
			<path d="M350.9,302.5L506.1,407L488,418.8l-129.2-21.6c-33.2-5.5-58.6-10.6-80-16c-0.2,0-0.3-0.1-0.5-0.1c-0.8,0-1.5,0.5-1.8,1.2
				c-0.4,0.9,0,2,0.8,2.5c20.4,12.3,39.3,24.4,65.2,41.9l65.5,44.1l-16.6,10.8L236.1,377l19.8-12.8l129.4,21.2
				c28.3,4.6,53.3,9.7,76.4,15.6c0.2,0,0.3,0.1,0.5,0.1c0.8,0,1.5-0.5,1.9-1.3c0.4-0.9,0-2-0.9-2.5c-22.9-13.1-42.5-25.8-64.8-40.8
				l-64-43.1L350.9,302.5 M350.9,300.1l-20.2,13.1l66.6,44.8c22.4,15.1,42.1,27.9,65,40.9c-23.2-5.9-48.2-11-76.5-15.6L255.5,362
				l-23,14.9l158.8,106.9l20.2-13.1l-68-45.8c-25.9-17.4-44.9-29.6-65.3-41.9c21.4,5.4,46.9,10.5,80.1,16l130,21.7l21.3-13.9
				L350.9,300.1L350.9,300.1z"/>
		</g>
	</g>
</g>
</svg>
